<?xml version="1.0" encoding="UTF-8" standalone="no"?>
<!-- Created with Inkscape (http://www.inkscape.org/) -->

<svg
   width="147.16992mm"
   height="129.14397mm"
   viewBox="0 0 147.16992 129.14396"
   version="1.1"
   id="svg1"
   sodipodi:docname="clock.svg"
   inkscape:version="1.3.2 (091e20ef0f, 2023-11-25)"
   xmlns:inkscape="http://www.inkscape.org/namespaces/inkscape"
   xmlns:sodipodi="http://sodipodi.sourceforge.net/DTD/sodipodi-0.dtd"
   xmlns="http://www.w3.org/2000/svg"
   xmlns:svg="http://www.w3.org/2000/svg">
  <sodipodi:namedview
     id="namedview1"
     pagecolor="#505050"
     bordercolor="#eeeeee"
     borderopacity="1"
     inkscape:showpageshadow="0"
     inkscape:pageopacity="0"
     inkscape:pagecheckerboard="0"
     inkscape:deskcolor="#d1d1d1"
     inkscape:document-units="mm"
     inkscape:zoom="1.9401788"
     inkscape:cx="275.23237"
     inkscape:cy="354.60649"
     inkscape:window-width="1920"
     inkscape:window-height="1048"
     inkscape:window-x="0"
     inkscape:window-y="0"
     inkscape:window-maximized="1"
     inkscape:current-layer="layer1" />
  <defs
     id="defs1" />
  <g
     inkscape:label="Calque 1"
     inkscape:groupmode="layer"
     id="layer1"
     transform="translate(-10.883528,-67.013789)">
    <path
       id="path44"
       style="fill:#806600;stroke:none;stroke-width:1;stroke-linecap:round;stroke-linejoin:round;paint-order:fill markers stroke"
       d="m 121.79828,99.267875 0.0827,0.08682 c 11.83182,15.018025 13.70873,36.410505 3.11402,53.648405 -13.57706,22.08969 -42.490668,28.99075 -64.580558,15.41405 h -5.17e-4 c -6.307773,-3.87743 -11.609055,-9.19181 -15.47089,-15.50913 16.31298,28.1774 38.085445,29.38753 50.547819,27.17456 1.783173,-0.3296 3.548194,-0.75082 5.288056,-1.26193 0.0577,-0.0173 0.11998,-0.0349 0.17673,-0.0522 12.09134,-3.83089 22.40059,-11.8847 29.0437,-22.68957 8.81316,-14.3439 10.26114,-32.02982 3.89847,-47.61621 l 9.41028,-2.89595 z" />
    <path
       id="path39"
       style="fill:#d4aa00;stroke:none;stroke-width:1;stroke-linecap:round;stroke-linejoin:round;paint-order:fill markers stroke"
       d="m 121.26911,98.738708 0.0827,0.08682 c 11.83182,15.018022 13.70873,36.410502 3.11402,53.648402 -13.57706,22.08969 -42.490665,28.99075 -64.580555,15.41405 h -5.17e-4 c -6.307773,-3.87743 -11.609055,-9.19181 -15.47089,-15.50913 16.31298,28.1774 38.085445,29.38753 50.547819,27.17456 1.783173,-0.3296 3.548194,-0.75082 5.288053,-1.26193 0.0577,-0.0173 0.11998,-0.0349 0.17673,-0.0522 12.09134,-3.83089 22.40059,-11.8847 29.0437,-22.68957 8.81316,-14.3439 10.26114,-32.02982 3.89847,-47.61621 l 9.41028,-2.89595 z" />
    <path
       id="path20"
       style="fill:#806600;stroke-width:2.64583;stroke-linecap:round;stroke-linejoin:round;paint-order:fill markers stroke"
       d="M 84.092829,83.426831 A 45.002243,45.002243 0 0 0 46.657905,104.85602 45.002243,45.002243 0 0 0 61.43323,166.75921 45.002243,45.002243 0 0 0 123.33695,151.98441 45.002243,45.002243 0 0 0 108.56162,90.080172 45.002243,45.002243 0 0 0 84.092829,83.426831 Z m 4.201811,5.139738 a 39.997906,39.997906 0 0 1 13.6338,3.725871 c -0.37766,0.286953 -0.70679,0.649963 -0.95808,1.085205 -1.015567,1.759012 -0.40923,4.023423 1.34978,5.038969 1.75898,1.015552 4.02342,0.409188 5.03897,-1.349789 0.27062,-0.468743 0.42491,-0.973187 0.47388,-1.48053 a 39.997906,39.997906 0 0 1 9.9968,10.000425 c -0.0305,0.003 -0.061,0.004 -0.0915,0.008 -0.47546,0.0585 -0.94724,0.21069 -1.38699,0.46457 -1.75901,1.01555 -2.36484,3.27997 -1.34927,5.03897 1.01556,1.759 3.27793,2.36536 5.0369,1.34979 0.4688,-0.27067 0.85499,-0.63052 1.15135,-1.04541 a 39.997906,39.997906 0 0 1 3.66438,13.72061 c -0.0561,-0.003 -0.1127,-0.004 -0.1695,-0.004 -1.82311,-10e-6 -3.3011,1.47798 -3.30109,3.30109 1e-5,1.82309 1.478,3.30109 3.30109,3.30109 0.0575,0 0.11479,-0.002 0.17156,-0.005 a 39.997906,39.997906 0 0 1 -3.66851,13.71958 c -0.29611,-0.41356 -0.68148,-0.77274 -1.14928,-1.04283 -0.43975,-0.25389 -0.91101,-0.40611 -1.38648,-0.46457 -1.4264,-0.17538 -2.88876,0.49511 -3.65042,1.81436 -1.01555,1.75898 -0.40971,4.02135 1.34927,5.0369 0.43,0.24825 0.89017,0.39916 1.35495,0.46043 a 39.997906,39.997906 0 0 1 -9.88776,9.88571 c -0.0614,-0.46359 -0.2117,-0.92279 -0.45941,-1.35186 -0.76168,-1.31926 -2.22558,-1.99181 -3.65197,-1.81643 -0.47547,0.0585 -0.94725,0.21068 -1.387,0.46458 -1.75899,1.01554 -2.365327,3.2805 -1.34978,5.03948 0.25064,0.43411 0.5777,0.79754 0.95394,1.08417 a 39.997906,39.997906 0 0 1 -13.629143,3.71967 c 0.0025,-0.0524 0.0036,-0.10514 0.0036,-0.15813 7e-6,-1.82311 -1.477986,-3.3011 -3.301091,-3.30109 -1.823089,1e-5 -3.301097,1.478 -3.30109,3.30109 0,0.0556 0.0019,0.11097 0.0047,0.16588 a 39.997906,39.997906 0 0 1 -13.63276,-3.72535 c 0.37753,-0.28694 0.705301,-0.65111 0.956531,-1.08624 1.015559,-1.759 0.409736,-4.02395 -1.349272,-5.03948 -0.439747,-0.25389 -0.911535,-0.40612 -1.386995,-0.46458 -1.426383,-0.17536 -2.890311,0.4972 -3.651974,1.81643 -0.248087,0.42971 -0.399081,0.88962 -0.460437,1.35392 a 39.997906,39.997906 0 0 1 -9.885184,-9.88828 c 0.464109,-0.0615 0.924022,-0.21202 1.353405,-0.45992 1.759002,-1.01556 2.364857,-3.27792 1.349272,-5.0369 -0.761662,-1.31924 -2.225591,-1.98975 -3.651973,-1.81436 -0.475461,0.0585 -0.947254,0.21068 -1.386996,0.46457 -0.433669,0.25038 -0.796643,0.57716 -1.083138,0.95291 a 39.997906,39.997906 0 0 1 -3.71967,-13.62914 c 0.05238,0.002 0.105143,0.004 0.15813,0.004 1.823109,1e-5 3.301101,-1.47798 3.301091,-3.30109 -10e-6,-1.82309 -1.478002,-3.30109 -3.301091,-3.30109 -0.05559,0 -0.110969,0.001 -0.165881,0.004 a 39.997906,39.997906 0 0 1 3.72432,-13.63173 c 0.286942,0.37753 0.651107,0.7053 1.086239,0.95653 1.758995,1.01557 4.023419,0.40922 5.038969,-1.34979 1.015537,-1.759 0.409717,-4.02343 -1.349272,-5.03897 -0.430025,-0.24827 -0.890706,-0.39868 -1.355472,-0.45992 a 39.997906,39.997906 0 0 1 9.887768,-9.885185 c 0.06145,0.464109 0.212023,0.923505 0.45992,1.352889 1.01557,1.759012 3.279978,2.365364 5.038969,1.349789 1.758972,-1.015561 2.364815,-3.279987 1.349272,-5.038969 -0.250709,-0.43423 -0.578429,-0.796494 -0.954981,-1.083138 a 39.997906,39.997906 0 0 1 13.630693,-3.720187 c -0.0025,0.05238 -0.0041,0.105143 -0.0041,0.15813 -7e-6,1.823108 1.477986,3.301101 3.30109,3.301091 1.82309,-1e-5 3.301098,-1.478003 3.301091,-3.301091 -10e-7,-0.05559 -0.0014,-0.110969 -0.0041,-0.165881 z m -21.254517,4.250903 c 0.452394,0.227843 0.84646,0.586408 1.119828,1.059884 0.74533,1.290956 0.306506,2.928855 -0.984436,3.674194 -1.290962,0.745352 -2.926257,0.30655 -3.67161,-0.984436 -0.283981,-0.491885 -0.396121,-1.03406 -0.355017,-1.558044 a 39.997906,39.997906 0 0 1 3.891235,-2.191598 z m 35.915637,0 a 39.997906,39.997906 0 0 1 2.98535,1.526005 39.997906,39.997906 0 0 1 0.89762,0.584461 c 0.0603,0.548918 -0.0481,1.121858 -0.34675,1.639176 -0.74533,1.290947 -2.38067,1.729761 -3.67161,0.984436 -1.29098,-0.74533 -1.72978,-2.38321 -0.98443,-3.674194 0.27343,-0.473582 0.6673,-0.832049 1.11982,-1.059884 z m -33.461006,9.569448 c 0,0 -3.731034,9.89641 0.690397,17.8263 0.329743,-1.91865 0.674983,-3.24653 1.381828,-4.69946 2.116317,4.35836 5.984915,7.83101 9.029939,10.07381 a 5.2339101,5.2339101 0 0 0 -0.833024,2.83238 5.2339101,5.2339101 0 0 0 0.687297,2.56677 l -21.880835,20.5512 c -0.533639,0.47495 -0.583203,1.30311 -0.107487,1.83606 0.475499,0.53308 1.305171,0.57957 1.837614,0.10336 a 0.35657314,0.35657314 0 0 0 0.0062,-0.006 l 21.939229,-20.60598 a 5.2339101,5.2339101 0 0 0 2.75177,0.78858 5.2339101,5.2339101 0 0 0 5.199166,-4.64209 l 15.539622,1.5844 -2.41691,3.17138 c 0,0 -1.23962,1.61418 -0.70951,2.19831 0.53012,0.58416 2.36678,-0.51779 2.36678,-0.51779 l 12.39097,-7.45329 -12.80748,-6.71329 c 0,0 -1.89826,-0.99151 -2.39314,-0.37724 -0.49488,0.61429 0.83768,2.15284 0.83768,2.15284 l 2.5988,3.02359 -15.375806,2.4877 a 5.2339101,5.2339101 0 0 0 0.0036,-0.14831 5.2339101,5.2339101 0 0 0 -5.233789,-5.23379 5.2339101,5.2339101 0 0 0 -3.831807,1.68259 c -2.76944,-2.80482 -6.205792,-6.85402 -7.294645,-10.59522 2.925602,-1.2033 5.892663,-0.14676 5.892663,-0.14676 -4.42679,-3.60234 -10.26914,-11.73985 -10.26914,-11.73985 z m -17.753955,4.17494 c 0.475195,-0.0101 0.95977,0.10656 1.403532,0.36276 1.290951,0.74532 1.729757,2.38272 0.984436,3.67368 -0.745332,1.29097 -2.382714,1.72772 -3.673678,0.98237 -0.473783,-0.27354 -0.832406,-0.66699 -1.059884,-1.11931 a 39.997906,39.997906 0 0 1 1.526005,-2.98483 39.997906,39.997906 0 0 1 0.659908,-0.90589 c 0.05312,-0.004 0.106252,-0.008 0.159681,-0.009 z m 66.514291,0 c 0.0782,0.002 0.15606,0.008 0.23358,0.016 a 39.997906,39.997906 0 0 1 2.16937,3.75739 c -0.22229,0.50495 -0.60215,0.94681 -1.11931,1.2454 -1.29093,0.74534 -2.92627,0.30859 -3.67161,-0.98237 -0.74535,-1.29097 -0.30653,-2.92835 0.98444,-3.67368 0.44376,-0.2562 0.92833,-0.37289 1.40353,-0.36276 z m -33.257407,17.20618 a 4.6518892,4.6518892 0 0 1 4.651913,4.65191 4.6518892,4.6518892 0 0 1 -0.0062,0.24288 l -1.10846,0.17932 1.083138,0.11059 a 4.6518892,4.6518892 0 0 1 -4.62039,4.11912 4.6518892,4.6518892 0 0 1 -2.305802,-0.6258 l 1.040247,-0.97668 c 0.389837,0.162 0.817079,0.25167 1.265555,0.25166 1.82309,-10e-6 3.301098,-1.478 3.301091,-3.30109 -2e-5,-1.82307 -1.47802,-3.30108 -3.301091,-3.30109 -0.975619,0 -1.851862,0.42368 -2.45618,1.09658 -0.304278,-0.28894 -0.625455,-0.6016 -0.961182,-0.93483 a 4.6518892,4.6518892 0 0 1 3.417361,-1.51257 z m -3.91759,2.16938 c 0.386801,0.27657 0.752557,0.52972 1.100191,0.76222 -0.306616,0.50104 -0.483684,1.08989 -0.483691,1.72031 -2e-6,0.41942 0.07905,0.81999 0.221692,1.18908 l -1.035079,0.97255 a 4.6518892,4.6518892 0 0 1 -0.537435,-2.16163 4.6518892,4.6518892 0 0 1 0.734322,-2.48253 z m 1.179773,4.32738 5.17e-4,5.2e-4 c 0.220758,0.32676 0.499139,0.61156 0.819588,0.84077 l -0.989604,0.92915 a 4.6518892,4.6518892 0 0 1 -0.821138,-0.84026 z m -1.41025,1.32498 a 5.2339101,5.2339101 0 0 0 0.808736,0.85163 L 59.824026,152.9461 c -0.24495,0.21908 -0.609105,0.19825 -0.827856,-0.047 -0.218851,-0.24518 -0.19899,-0.60935 0.04651,-0.82786 a 0.35657314,0.35657314 0 0 0 0.0078,-0.006 z m -28.990995,13.30617 c 0.215998,0.005 0.429809,0.0354 0.63717,0.0909 0.663558,0.17779 1.260312,0.61027 1.632976,1.25574 0.745354,1.29095 0.306531,2.92679 -0.984436,3.67212 -0.491583,0.28382 -1.03315,0.39575 -1.556495,0.3545 a 39.997906,39.997906 0 0 1 -2.192114,-3.89175 c 0.227488,-0.4521 0.585773,-0.84587 1.059367,-1.11931 0.443759,-0.2562 0.928336,-0.37237 1.403532,-0.36225 z m 66.276579,0 c 0.47519,-0.0101 0.95976,0.10604 1.40353,0.36225 0.51736,0.2987 0.89757,0.74074 1.11983,1.24592 a 39.997906,39.997906 0 0 1 -1.58492,2.85977 39.997906,39.997906 0 0 1 -0.65887,0.90434 c -0.52545,0.0428 -1.06951,-0.0684 -1.56321,-0.35347 -1.29096,-0.74532 -1.72977,-2.38117 -0.98444,-3.67212 0.37267,-0.64548 0.96735,-1.07794 1.63091,-1.25574 0.20736,-0.0556 0.42117,-0.0864 0.63717,-0.0909 z m -52.363217,14.03118 c 0.475195,-0.0101 0.959768,0.10657 1.403532,0.36277 1.290972,0.74534 1.729778,2.38064 0.984436,3.67161 -0.273714,0.47408 -0.667864,0.83261 -1.120861,1.0604 a 39.997906,39.997906 0 0 1 -2.985348,-1.526 39.997906,39.997906 0 0 1 -0.904337,-0.65888 c -0.04237,-0.5254 0.0695,-1.06955 0.3545,-1.56321 0.372665,-0.64547 0.967352,-1.07794 1.630908,-1.25574 0.207361,-0.0556 0.421173,-0.0863 0.63717,-0.0909 z m 38.451917,0 c 0.216,0.005 0.42981,0.0354 0.63717,0.0909 0.66357,0.1778 1.25823,0.61025 1.63091,1.25574 0.28379,0.49156 0.39573,1.03318 0.3545,1.5565 a 39.997906,39.997906 0 0 1 -3.89072,2.19159 c -0.45249,-0.22779 -0.84619,-0.58648 -1.11982,-1.0604 -0.74533,-1.29094 -0.30651,-2.92628 0.98443,-3.67161 0.44377,-0.25621 0.92834,-0.37289 1.40353,-0.36277 z" />
    <path
       id="path1"
       style="fill:#d4aa00;stroke-width:2.64583;stroke-linecap:round;stroke-linejoin:round;paint-order:fill markers stroke"
       d="m 60.904162,166.23015 a 45.002243,45.002243 0 0 0 61.903818,-14.77516 45.002243,45.002243 0 0 0 -14.77558,-61.9041 45.002243,45.002243 0 0 0 -61.903678,14.77587 45.002243,45.002243 0 0 0 14.77544,61.90339 z m 2.62026,-4.26353 a 39.997906,39.997906 0 0 1 -13.13223,-55.01947 39.997906,39.997906 0 0 1 55.019818,-13.1328 39.997906,39.997906 0 0 1 13.13252,55.02026 39.997906,39.997906 0 0 1 -55.019988,13.13208 z" />
    <path
       id="path2"
       style="fill:#d4aa00;stroke-width:0.307719;stroke-linecap:round;stroke-linejoin:round;paint-order:fill markers stroke"
       d="m 84.468518,122.65674 a 5.2339101,5.2339101 0 0 0 -5.233931,5.23387 5.2339101,5.2339101 0 0 0 5.233931,5.23394 5.2339101,5.2339101 0 0 0 5.23387,-5.23394 5.2339101,5.2339101 0 0 0 -5.23387,-5.23387 z m 0,0.58203 a 4.6518892,4.6518892 0 0 1 4.651848,4.65184 4.6518892,4.6518892 0 0 1 -4.651848,4.65191 4.6518892,4.6518892 0 0 1 -4.651909,-4.65191 4.6518892,4.6518892 0 0 1 4.651909,-4.65184 z" />
    <path
       id="path3"
       style="fill:#d4aa00;stroke-width:0.194077;stroke-linecap:round;stroke-linejoin:round;paint-order:fill markers stroke"
       d="m 84.468506,124.58965 c -1.823086,-1e-5 -3.300999,1.47788 -3.301019,3.30097 -7e-6,1.82311 1.477913,3.30103 3.301019,3.30102 1.823091,-1e-5 3.300989,-1.47793 3.300982,-3.30102 -2e-5,-1.82307 -1.47791,-3.30096 -3.300982,-3.30097 z"
       sodipodi:nodetypes="scsss" />
    <path
       id="path4"
       style="fill:#d4aa00;stroke:none;stroke-width:3.5434;stroke-linecap:round;stroke-linejoin:round;paint-order:fill markers stroke"
       d="m 68.965596,101.85743 c 0,0 -3.731035,9.89684 0.6904,17.82674 0.329744,-1.91865 0.674685,-3.24686 1.38153,-4.69979 3.833652,7.89505 13.430962,12.90627 13.430962,12.90627 0,0 -9.20842,-7.55681 -11.126331,-14.14658 2.925605,-1.2033 5.89243,-0.14666 5.89243,-0.14666 -4.426795,-3.60234 -10.268991,-11.73998 -10.268991,-11.73998 z"
       sodipodi:nodetypes="ccccccc" />
    <path
       style="fill:#d4aa00;stroke:none;stroke-width:2.64583;stroke-linecap:round;stroke-linejoin:round;paint-order:fill markers stroke"
       d="m 104.03125,120.75236 c 0,0 -1.8984,-0.99198 -2.39328,-0.37771 -0.49488,0.61429 0.83748,2.1529 0.83748,2.1529 l 2.59925,3.02392 -17.068763,2.76139 17.201503,1.75393 -2.41712,3.17137 c 0,0 -1.23968,1.61424 -0.70957,2.19838 0.53012,0.58416 2.36697,-0.51764 2.36697,-0.51764 l 12.39075,-7.45365 z"
       id="path6"
       sodipodi:nodetypes="czccccczccc" />
    <path
       style="color:#000000;fill:none;stroke:#d4aa00;stroke-width:0.713075;stroke-linecap:round;stroke-linejoin:round;-inkscape-stroke:none;paint-order:fill markers stroke"
       d="m 82.542525,128.48449 -24.265461,22.79056 c -0.389572,0.34673 -0.423884,0.94377 -0.0766,1.33284 0.347126,0.38916 0.944141,0.42284 1.332838,0.0752 l 24.26546,-22.79056 c 0.389157,-0.34712 0.422846,-0.94414 0.07521,-1.33284 -0.346997,-0.38824 -0.942939,-0.4219 -1.331445,-0.0752 z"
       id="path7"
       sodipodi:nodetypes="ccccccsc" />
    <path
       id="path8"
       style="fill:#d4aa00;stroke-width:0.194077;stroke-linecap:round;stroke-linejoin:round;paint-order:fill markers stroke"
       d="m 84.468506,84.902134 c -1.823086,-1e-5 -3.300999,1.47788 -3.301019,3.300967 -7e-6,1.82311 1.477913,3.30103 3.301019,3.30102 1.823091,-1e-5 3.300989,-1.47793 3.300982,-3.30102 -2e-5,-1.823067 -1.47791,-3.300957 -3.300982,-3.300967 z"
       sodipodi:nodetypes="scsss" />
    <path
       id="path9"
       style="fill:#d4aa00;stroke-width:0.194077;stroke-linecap:round;stroke-linejoin:round;paint-order:fill markers stroke"
       d="m 127.45701,127.89067 c 1e-5,-1.82309 -1.47788,-3.301 -3.30097,-3.30102 -1.82311,-1e-5 -3.30103,1.47791 -3.30102,3.30102 1e-5,1.82309 1.47793,3.30098 3.30102,3.30098 1.82307,-2e-5 3.30096,-1.47791 3.30097,-3.30098 z"
       sodipodi:nodetypes="scsss" />
    <path
       id="path10"
       style="fill:#d4aa00;stroke-width:0.194077;stroke-linecap:round;stroke-linejoin:round;paint-order:fill markers stroke"
       d="m 84.468476,170.87917 c 1.823086,1e-5 3.300999,-1.47788 3.301019,-3.30097 7e-6,-1.82311 -1.477913,-3.30103 -3.301019,-3.30102 -1.823091,1e-5 -3.300989,1.47793 -3.300982,3.30102 2e-5,1.82307 1.47791,3.30096 3.300982,3.30097 z"
       sodipodi:nodetypes="scsss" />
    <path
       id="path11"
       style="fill:#d4aa00;stroke-width:0.194077;stroke-linecap:round;stroke-linejoin:round;paint-order:fill markers stroke"
       d="m 41.479972,127.89063 c -10e-6,1.82309 1.47788,3.301 3.30097,3.30102 1.82311,1e-5 3.30103,-1.47791 3.30102,-3.30102 -10e-6,-1.82309 -1.47793,-3.30098 -3.30102,-3.30098 -1.82307,2e-5 -3.30096,1.47791 -3.30097,3.30098 z"
       sodipodi:nodetypes="scsss" />
    <path
       id="path12"
       style="fill:none;stroke:#d4aa00;stroke-width:1;stroke-linecap:round;stroke-linejoin:round;paint-order:fill markers stroke"
       d="m 48.509663,107.1298 c -0.880447,1.52495 -0.357972,3.47493 1.166986,4.35538 1.524983,0.88046 3.474974,0.35797 4.355416,-1.16702 0.880431,-1.52498 0.357922,-3.47495 -1.167051,-4.35538 -1.524961,-0.88042 -3.474909,-0.35793 -4.355351,1.16702 z"
       sodipodi:nodetypes="scsss" />
    <path
       id="path13"
       style="fill:none;stroke:#d4aa00;stroke-width:1;stroke-linecap:round;stroke-linejoin:round;paint-order:fill markers stroke"
       d="m 105.22935,91.931827 c -1.52497,-0.880462 -3.47493,-0.357974 -4.35539,1.16697 -0.880456,1.525001 -0.35796,3.474988 1.16704,4.355428 1.52496,0.88044 3.47493,0.357919 4.35537,-1.167046 0.88041,-1.524964 0.35792,-3.474913 -1.16702,-4.355352 z"
       sodipodi:nodetypes="scsss" />
    <path
       id="path14"
       style="fill:none;stroke:#d4aa00;stroke-width:1;stroke-linecap:round;stroke-linejoin:round;paint-order:fill markers stroke"
       d="m 120.42732,148.65151 c 0.88045,-1.52496 0.35798,-3.47494 -1.16699,-4.35539 -1.52499,-0.88046 -3.47497,-0.35795 -4.35542,1.16703 -0.88044,1.52497 -0.35791,3.47494 1.16706,4.35538 1.52496,0.88041 3.4749,0.35792 4.35535,-1.16702 z"
       sodipodi:nodetypes="scsss" />
    <path
       id="path15"
       style="fill:none;stroke:#d4aa00;stroke-width:1;stroke-linecap:round;stroke-linejoin:round;paint-order:fill markers stroke"
       d="m 63.707623,163.84948 c 1.524974,0.88045 3.474937,0.35798 4.3554,-1.16699 0.880452,-1.52499 0.357954,-3.47497 -1.167039,-4.35541 -1.524973,-0.88043 -3.47494,-0.35792 -4.355381,1.16704 -0.88041,1.52497 -0.35792,3.47492 1.16702,4.35536 z"
       sodipodi:nodetypes="scsss" />
    <path
       id="path16"
       style="fill:none;stroke:#d4aa00;stroke-width:1;stroke-linecap:round;stroke-linejoin:round;paint-order:fill markers stroke"
       d="m 120.42733,107.12981 c -0.88043,-1.52496 -2.83039,-2.04747 -4.35537,-1.16704 -1.52499,0.88044 -2.04749,2.83042 -1.16703,4.35541 0.88045,1.52498 2.83044,2.04745 4.35539,1.16699 1.52494,-0.88044 2.04744,-2.83038 1.16701,-4.35536 z"
       sodipodi:nodetypes="scsss" />
    <path
       id="path17"
       style="fill:none;stroke:#d4aa00;stroke-width:1;stroke-linecap:round;stroke-linejoin:round;paint-order:fill markers stroke"
       d="m 105.22932,163.8495 c 1.52498,-0.88044 2.04747,-2.8304 1.16707,-4.35537 -0.88047,-1.525 -2.83046,-2.0475 -4.35544,-1.16703 -1.52497,0.88044 -2.047435,2.83043 -1.167,4.35539 0.88046,1.52493 2.83041,2.04743 4.35537,1.16701 z"
       sodipodi:nodetypes="scsss" />
    <path
       id="path18"
       style="fill:none;stroke:#d4aa00;stroke-width:1;stroke-linecap:round;stroke-linejoin:round;paint-order:fill markers stroke"
       d="m 48.509641,148.65148 c 0.880431,1.52497 2.830409,2.04749 4.355384,1.16705 1.524988,-0.88045 2.047486,-2.83044 1.167015,-4.35541 -0.88044,-1.52497 -2.830427,-2.04744 -4.355382,-1.16699 -1.524931,0.88044 -2.047434,2.83039 -1.167017,4.35535 z"
       sodipodi:nodetypes="scsss" />
    <path
       id="path19"
       style="fill:none;stroke:#d4aa00;stroke-width:1;stroke-linecap:round;stroke-linejoin:round;paint-order:fill markers stroke"
       d="m 63.707665,91.931808 c -1.524977,0.880446 -2.047487,2.830382 -1.167063,4.355371 0.880463,1.525002 2.830442,2.047486 4.355422,1.167021 1.52496,-0.880452 2.047435,-2.830414 1.166997,-4.355386 -0.88045,-1.524944 -2.830404,-2.047423 -4.355356,-1.167006 z"
       sodipodi:nodetypes="scsss" />
    <path
       id="path38"
       style="fill:#d4aa00;stroke-width:3.1056;stroke-linecap:round;stroke-linejoin:round;paint-order:fill markers stroke"
       d="m 43.246487,150.27458 c 0.252454,0.47464 0.477234,0.92818 0.75861,1.42472 0.129302,0.22818 0.263769,0.43001 0.393774,0.65474 -0.409203,-0.67924 -0.778319,-1.38079 -1.152384,-2.07946 z" />
    <path
       id="path49"
       style="fill:#d4aa00;stroke-width:0.194077;stroke-linecap:round;stroke-linejoin:round;paint-order:fill markers stroke"
       d="m 127.45701,127.89067 c 1e-5,-1.82309 -1.47788,-3.301 -3.30097,-3.30102 -1.82311,-1e-5 -3.30103,1.47791 -3.30102,3.30102 1e-5,1.82309 1.47793,3.30098 3.30102,3.30098 1.82307,-2e-5 3.30096,-1.47791 3.30097,-3.30098 z"
       sodipodi:nodetypes="scsss" />
    <path
       id="path60"
       style="color:#000000;fill:#806600;stroke-width:0.267588;stroke-linecap:round;stroke-linejoin:round;-inkscape-stroke:none;paint-order:fill markers stroke"
       d="m 144.84383,74.507906 a 0.53522973,0.53522973 0 0 0 -0.47956,0.297139 l -8.42171,16.991728 a 0.53517621,0.53517621 0 0 0 0.24185,0.717269 0.53517621,0.53517621 0 0 0 0.71727,-0.242363 l 7.94215,-16.024345 7.94267,16.024345 a 0.53517621,0.53517621 0 0 0 0.71727,0.242363 0.53517621,0.53517621 0 0 0 0.24184,-0.717269 l -8.42222,-16.991728 a 0.53522973,0.53522973 0 0 0 -0.47956,-0.297139 z m -0.47491,6.940661 c -0.5864,0 -1.10746,0.473949 -1.05885,1.058333 l 0.3452,4.145484 c 0.0486,0.584387 0.12725,1.058333 0.71365,1.058333 h 0.95033 c 0.58641,0 0.66503,-0.473946 0.71365,-1.058333 l 0.3452,-4.145484 c 0.0486,-0.584384 -0.47244,-1.058333 -1.05885,-1.058333 z m 0.47491,6.783049 a 1.537085,1.537085 0 0 0 -1.53686,1.537374 1.537085,1.537085 0 0 0 1.53686,1.536857 1.537085,1.537085 0 0 0 1.53737,-1.536857 1.537085,1.537085 0 0 0 -1.53737,-1.537374 z" />
    <path
       id="path47"
       style="color:#000000;fill:#d4aa00;stroke-width:0.267588;stroke-linecap:round;stroke-linejoin:round;-inkscape-stroke:none;paint-order:fill markers stroke"
       d="M 144.00719 73.670747 A 0.53522973 0.53522973 0 0 0 143.52763 73.967886 L 135.10592 90.960131 A 0.53517621 0.53517621 0 0 0 135.34777 91.676883 A 0.53517621 0.53517621 0 0 0 136.06503 91.435037 L 144.00719 75.410692 L 151.94985 91.435037 A 0.53517621 0.53517621 0 0 0 152.6666 91.676883 A 0.53517621 0.53517621 0 0 0 152.90897 90.960131 L 144.48674 73.967886 A 0.53522973 0.53522973 0 0 0 144.00719 73.670747 z M 143.53176 80.611409 C 142.94535 80.611409 142.42483 81.085358 142.47343 81.669742 L 142.81811 85.815742 C 142.86674 86.40013 142.94535 86.874075 143.53176 86.874075 L 144.48261 86.874075 C 145.06902 86.874075 145.14766 86.40013 145.19626 85.815742 L 145.54094 81.669742 C 145.58957 81.085358 145.06902 80.611409 144.48261 80.611409 L 143.53176 80.611409 z M 144.00719 87.394974 A 1.5370849 1.5370849 0 0 0 142.47033 88.931831 A 1.5370849 1.5370849 0 0 0 144.00719 90.469205 A 1.5370849 1.5370849 0 0 0 145.54456 88.931831 A 1.5370849 1.5370849 0 0 0 144.00719 87.394974 z " />
    <path
       id="path66"
       style="color:#000000;fill:#806600;stroke-width:0.267588;stroke-linecap:round;stroke-linejoin:round;-inkscape-stroke:none;paint-order:fill markers stroke"
       d="m 28.42716,74.507906 a 0.53522973,0.53522973 0 0 0 -0.479557,0.297139 l -8.421708,16.991728 a 0.53517621,0.53517621 0 0 0 0.241846,0.717269 0.53517621,0.53517621 0 0 0 0.717268,-0.242363 l 7.942151,-16.024345 7.942668,16.024345 a 0.53517621,0.53517621 0 0 0 0.717269,0.242363 0.53517621,0.53517621 0 0 0 0.241846,-0.717269 L 28.906718,74.805045 A 0.53522973,0.53522973 0 0 0 28.42716,74.507906 Z m -0.474906,6.940661 c -0.586406,0 -1.107462,0.473949 -1.05885,1.058333 l 0.345198,4.145484 c 0.04861,0.584387 0.127246,1.058333 0.713652,1.058333 h 0.95033 c 0.586406,0 0.665039,-0.473946 0.713651,-1.058333 L 29.961434,82.5069 c 0.04861,-0.584384 -0.472444,-1.058333 -1.05885,-1.058333 z m 0.474906,6.783049 a 1.537085,1.537085 0 0 0 -1.536857,1.537374 1.537085,1.537085 0 0 0 1.536857,1.536857 1.537085,1.537085 0 0 0 1.537374,-1.536857 1.537085,1.537085 0 0 0 -1.537374,-1.537374 z" />
    <path
       id="path69"
       style="color:#000000;fill:#d4aa00;stroke-width:0.267588;stroke-linecap:round;stroke-linejoin:round;-inkscape-stroke:none;paint-order:fill markers stroke"
       d="M 27.590519 73.670747 A 0.53522973 0.53522973 0 0 0 27.110961 73.967886 L 18.689253 90.960131 A 0.53517621 0.53517621 0 0 0 18.931099 91.676883 A 0.53517621 0.53517621 0 0 0 19.648368 91.435037 L 27.590519 75.410692 L 35.533186 91.435037 A 0.53517621 0.53517621 0 0 0 36.249938 91.676883 A 0.53517621 0.53517621 0 0 0 36.492301 90.960131 L 28.070076 73.967886 A 0.53522973 0.53522973 0 0 0 27.590519 73.670747 z M 27.115095 80.611409 C 26.528689 80.611409 26.008152 81.085358 26.056762 81.669742 L 26.401444 85.815742 C 26.450074 86.40013 26.528689 86.874075 27.115095 86.874075 L 28.065942 86.874075 C 28.652348 86.874075 28.730983 86.40013 28.779593 85.815742 L 29.124275 81.669742 C 29.17291 81.085358 28.652348 80.611409 28.065942 80.611409 L 27.115095 80.611409 z M 27.590519 87.394974 A 1.5370849 1.5370849 0 0 0 26.053661 88.931831 A 1.5370849 1.5370849 0 0 0 27.590519 90.469205 A 1.5370849 1.5370849 0 0 0 29.127892 88.931831 A 1.5370849 1.5370849 0 0 0 27.590519 87.394974 z " />
  </g>
</svg>
