<?xml version="1.0" encoding="UTF-8" standalone="no"?>
<!-- Created with Inkscape (http://www.inkscape.org/) -->

<svg
   width="136.20944"
   height="29.123226"
   viewBox="0 0 36.038747 7.7055201"
   version="1.1"
   id="svg1"
   inkscape:version="1.3.2 (091e20ef0f, 2023-11-25)"
   sodipodi:docname="decBitDepth.svg"
   xmlns:inkscape="http://www.inkscape.org/namespaces/inkscape"
   xmlns:sodipodi="http://sodipodi.sourceforge.net/DTD/sodipodi-0.dtd"
   xmlns="http://www.w3.org/2000/svg"
   xmlns:svg="http://www.w3.org/2000/svg">
  <sodipodi:namedview
     id="namedview1"
     pagecolor="#505050"
     bordercolor="#eeeeee"
     borderopacity="1"
     inkscape:showpageshadow="0"
     inkscape:pageopacity="0"
     inkscape:pagecheckerboard="0"
     inkscape:deskcolor="#d1d1d1"
     inkscape:document-units="px"
     inkscape:zoom="7.7607152"
     inkscape:cx="142.70592"
     inkscape:cy="24.611134"
     inkscape:window-width="1920"
     inkscape:window-height="1048"
     inkscape:window-x="0"
     inkscape:window-y="0"
     inkscape:window-maximized="1"
     inkscape:current-layer="layer1"
     showgrid="false" />
  <defs
     id="defs1" />
  <g
     inkscape:label="Calque 1"
     inkscape:groupmode="layer"
     id="layer1"
     transform="translate(0,-279.42799)">
    <path
       id="rect21"
       style="fill:#d45500;stroke-width:0.883987;stroke-linecap:round;stroke-linejoin:round;paint-order:fill markers stroke"
       d="m 4.4031576,283.66179 0.3387045,-0.3387 0.3387044,0.3387 v 2.70963 l -0.3387044,0.33871 -0.3387045,-0.33871 z"
       sodipodi:nodetypes="ccccccc" />
    <path
       id="path21"
       style="fill:#d45500;stroke-width:0.883987;stroke-linecap:round;stroke-linejoin:round;paint-order:fill markers stroke"
       d="m 4.4031576,280.19006 0.3387045,-0.3387 0.3387044,0.3387 v 2.70964 l -0.3387044,0.33871 -0.3387045,-0.33871 z"
       sodipodi:nodetypes="ccccccc" />
    <path
       id="path22"
       style="fill:#d45500;stroke-width:0.883987;stroke-linecap:round;stroke-linejoin:round;paint-order:fill markers stroke"
       d="m 7.8748829,279.42799 0.3387002,0.3387 -0.3387002,0.3387 H 5.1652463 l -0.3387082,-0.3387 0.3387082,-0.3387 z"
       sodipodi:nodetypes="ccccccc" />
    <path
       id="path23"
       style="fill:#d45500;stroke-width:0.883987;stroke-linecap:round;stroke-linejoin:round;paint-order:fill markers stroke"
       d="m 8.6369636,282.89971 -0.3387045,0.3387 -0.3387043,-0.3387 v -2.70964 l 0.3387043,-0.3387 0.3387045,0.3387 z"
       sodipodi:nodetypes="ccccccc" />
    <path
       id="path24"
       style="fill:#d45500;stroke-width:0.883987;stroke-linecap:round;stroke-linejoin:round;paint-order:fill markers stroke"
       d="m 8.6369636,286.37143 -0.3387045,0.3387 -0.3387043,-0.3387 v -2.70964 l 0.3387043,-0.3387 0.3387045,0.3387 z"
       sodipodi:nodetypes="ccccccc" />
    <path
       id="path25"
       style="fill:#d45500;stroke-width:0.883987;stroke-linecap:round;stroke-linejoin:round;paint-order:fill markers stroke"
       d="m 5.1652383,287.13351 -0.3387002,-0.3387 0.3387002,-0.33871 h 2.7096366 l 0.3387082,0.33871 -0.3387082,0.3387 z"
       sodipodi:nodetypes="ccccccc" />
    <path
       id="path26"
       style="fill:#d45500;stroke-width:0.883987;stroke-linecap:round;stroke-linejoin:round;paint-order:fill markers stroke"
       d="m 0,283.66179 0.33870442,-0.3387 0.33870442,0.3387 v 2.70963 L 0.33870442,286.71013 0,286.37142 Z"
       sodipodi:nodetypes="ccccccc" />
    <path
       id="path27"
       style="fill:#d45500;stroke-width:0.883987;stroke-linecap:round;stroke-linejoin:round;paint-order:fill markers stroke"
       d="M -1.0000001e-8,280.19006 0.33870442,279.85136 l 0.33870442,0.3387 v 2.70964 L 0.33870442,283.23841 -1.0000001e-8,282.8997 Z"
       sodipodi:nodetypes="ccccccc" />
    <path
       id="path28"
       style="fill:#d45500;stroke-width:0.883987;stroke-linecap:round;stroke-linejoin:round;paint-order:fill markers stroke"
       d="m 3.4717253,279.42799 0.3387001,0.3387 -0.3387001,0.3387 H 0.76208872 l -0.33870818,-0.3387 0.33870818,-0.3387 z"
       sodipodi:nodetypes="ccccccc" />
    <path
       id="path29"
       style="fill:#d45500;stroke-width:0.883987;stroke-linecap:round;stroke-linejoin:round;paint-order:fill markers stroke"
       d="m 4.2338059,282.89971 -0.3387044,0.3387 -0.3387044,-0.3387 v -2.70964 l 0.3387044,-0.3387 0.3387044,0.3387 z"
       sodipodi:nodetypes="ccccccc" />
    <path
       id="path30"
       style="fill:#d45500;stroke-width:0.883987;stroke-linecap:round;stroke-linejoin:round;paint-order:fill markers stroke"
       d="m 4.2338059,286.37143 -0.3387044,0.3387 -0.3387044,-0.3387 v -2.70964 l 0.3387044,-0.3387 0.3387044,0.3387 z"
       sodipodi:nodetypes="ccccccc" />
    <path
       id="path31"
       style="fill:#d45500;stroke-width:0.883987;stroke-linecap:round;stroke-linejoin:round;paint-order:fill markers stroke"
       d="m 0.76208067,287.13351 -0.33870018,-0.3387 0.33870018,-0.33871 H 3.4717173 l 0.3387081,0.33871 -0.3387081,0.3387 z"
       sodipodi:nodetypes="ccccccc" />
    <path
       id="path32"
       style="fill:#d45500;stroke-width:0.883987;stroke-linecap:round;stroke-linejoin:round;paint-order:fill markers stroke"
       d="m 13.209473,283.66179 0.338704,-0.3387 0.338705,0.3387 v 2.70963 l -0.338705,0.33871 -0.338704,-0.33871 z"
       sodipodi:nodetypes="ccccccc" />
    <path
       id="path33"
       style="fill:#d45500;stroke-width:0.883987;stroke-linecap:round;stroke-linejoin:round;paint-order:fill markers stroke"
       d="m 13.209473,280.19006 0.338704,-0.3387 0.338705,0.3387 v 2.70964 l -0.338705,0.33871 -0.338704,-0.33871 z"
       sodipodi:nodetypes="ccccccc" />
    <path
       id="path34"
       style="fill:#d45500;stroke-width:0.883987;stroke-linecap:round;stroke-linejoin:round;paint-order:fill markers stroke"
       d="m 16.681198,279.42799 0.3387,0.3387 -0.3387,0.3387 h -2.709636 l -0.338709,-0.3387 0.338709,-0.3387 z"
       sodipodi:nodetypes="ccccccc" />
    <path
       id="path35"
       style="fill:#d45500;stroke-width:0.883987;stroke-linecap:round;stroke-linejoin:round;paint-order:fill markers stroke"
       d="m 17.443278,282.89971 -0.338703,0.3387 -0.338705,-0.3387 v -2.70964 l 0.338705,-0.3387 0.338703,0.3387 z"
       sodipodi:nodetypes="ccccccc" />
    <path
       id="path36"
       style="fill:#d45500;stroke-width:0.883987;stroke-linecap:round;stroke-linejoin:round;paint-order:fill markers stroke"
       d="m 17.443278,286.37143 -0.338703,0.3387 -0.338705,-0.3387 v -2.70964 l 0.338705,-0.3387 0.338703,0.3387 z"
       sodipodi:nodetypes="ccccccc" />
    <path
       id="path37"
       style="fill:#d45500;stroke-width:0.883987;stroke-linecap:round;stroke-linejoin:round;paint-order:fill markers stroke"
       d="m 13.971554,287.13351 -0.338701,-0.3387 0.338701,-0.33871 h 2.709636 l 0.338708,0.33871 -0.338708,0.3387 z"
       sodipodi:nodetypes="ccccccc" />
    <path
       id="path38"
       style="fill:#d45500;stroke-width:0.883987;stroke-linecap:round;stroke-linejoin:round;paint-order:fill markers stroke"
       d="m 8.8063153,283.66179 0.3387045,-0.3387 0.3387043,0.3387 v 2.70963 l -0.3387043,0.33871 -0.3387045,-0.33871 z"
       sodipodi:nodetypes="ccccccc" />
    <path
       id="path39"
       style="fill:#d45500;stroke-width:0.883987;stroke-linecap:round;stroke-linejoin:round;paint-order:fill markers stroke"
       d="m 8.8063153,280.19006 0.3387045,-0.3387 0.3387043,0.3387 v 2.70964 l -0.3387043,0.33871 -0.3387045,-0.33871 z"
       sodipodi:nodetypes="ccccccc" />
    <path
       id="path40"
       style="fill:#d45500;stroke-width:0.883987;stroke-linecap:round;stroke-linejoin:round;paint-order:fill markers stroke"
       d="m 12.278041,279.42799 0.3387,0.3387 -0.3387,0.3387 H 9.568404 l -0.3387082,-0.3387 0.3387082,-0.3387 z"
       sodipodi:nodetypes="ccccccc" />
    <path
       id="path41"
       style="fill:#d45500;stroke-width:0.883987;stroke-linecap:round;stroke-linejoin:round;paint-order:fill markers stroke"
       d="m 13.040121,282.89971 -0.338704,0.3387 -0.338705,-0.3387 v -2.70964 l 0.338705,-0.3387 0.338704,0.3387 z"
       sodipodi:nodetypes="ccccccc" />
    <path
       id="path42"
       style="fill:#d45500;stroke-width:0.883987;stroke-linecap:round;stroke-linejoin:round;paint-order:fill markers stroke"
       d="m 13.040121,286.37143 -0.338704,0.3387 -0.338705,-0.3387 v -2.70964 l 0.338705,-0.3387 0.338704,0.3387 z"
       sodipodi:nodetypes="ccccccc" />
    <path
       id="path43"
       style="fill:#d45500;stroke-width:0.883987;stroke-linecap:round;stroke-linejoin:round;paint-order:fill markers stroke"
       d="m 9.568396,287.13351 -0.3387002,-0.3387 0.3387002,-0.33871 h 2.709637 l 0.338708,0.33871 -0.338708,0.3387 z"
       sodipodi:nodetypes="ccccccc" />
    <path
       id="path47"
       style="fill:#d45500;stroke-width:0.883987;stroke-linecap:round;stroke-linejoin:round;paint-order:fill markers stroke"
       d="m 26.249595,282.89971 -0.338705,0.3387 -0.338705,-0.3387 v -2.70964 l 0.338705,-0.3387 0.338705,0.3387 z"
       sodipodi:nodetypes="ccccccc" />
    <path
       id="path48"
       style="fill:#d45500;stroke-width:0.883987;stroke-linecap:round;stroke-linejoin:round;paint-order:fill markers stroke"
       d="m 26.249595,286.37143 -0.338705,0.3387 -0.338705,-0.3387 v -2.70964 l 0.338705,-0.3387 0.338705,0.3387 z"
       sodipodi:nodetypes="ccccccc" />
    <path
       id="path53"
       style="fill:#d45500;stroke-width:0.883987;stroke-linecap:round;stroke-linejoin:round;paint-order:fill markers stroke"
       d="m 21.846437,282.89971 -0.338705,0.3387 -0.338705,-0.3387 v -2.70964 l 0.338705,-0.3387 0.338705,0.3387 z"
       sodipodi:nodetypes="ccccccc" />
    <path
       id="path54"
       style="fill:#d45500;stroke-width:0.883987;stroke-linecap:round;stroke-linejoin:round;paint-order:fill markers stroke"
       d="m 21.846437,286.37143 -0.338705,0.3387 -0.338705,-0.3387 v -2.70964 l 0.338705,-0.3387 0.338705,0.3387 z"
       sodipodi:nodetypes="ccccccc" />
    <path
       id="path59"
       style="fill:#d45500;stroke-width:0.883987;stroke-linecap:round;stroke-linejoin:round;paint-order:fill markers stroke"
       d="m 35.05591,282.89971 -0.338705,0.3387 -0.338705,-0.3387 v -2.70964 l 0.338705,-0.3387 0.338705,0.3387 z"
       sodipodi:nodetypes="ccccccc" />
    <path
       id="path60"
       style="fill:#d45500;stroke-width:0.883987;stroke-linecap:round;stroke-linejoin:round;paint-order:fill markers stroke"
       d="m 35.05591,286.37143 -0.338705,0.3387 -0.338705,-0.3387 v -2.70964 l 0.338705,-0.3387 0.338705,0.3387 z"
       sodipodi:nodetypes="ccccccc" />
    <path
       id="path65"
       style="fill:#d45500;stroke-width:0.883987;stroke-linecap:round;stroke-linejoin:round;paint-order:fill markers stroke"
       d="m 30.652751,282.89971 -0.338704,0.3387 -0.338705,-0.3387 v -2.70964 l 0.338705,-0.3387 0.338704,0.3387 z"
       sodipodi:nodetypes="ccccccc" />
    <path
       id="path66"
       style="fill:#d45500;stroke-width:0.883987;stroke-linecap:round;stroke-linejoin:round;paint-order:fill markers stroke"
       d="m 30.652751,286.37143 -0.338704,0.3387 -0.338705,-0.3387 v -2.70964 l 0.338705,-0.3387 0.338704,0.3387 z"
       sodipodi:nodetypes="ccccccc" />
  </g>
</svg>
