<?xml version="1.0" encoding="UTF-8" standalone="no"?>
<!-- Created with Inkscape (http://www.inkscape.org/) -->

<svg
   width="266.03284"
   height="119.96346"
   viewBox="0 0 70.387855 31.740333"
   version="1.1"
   id="svg1"
   inkscape:version="1.3.2 (091e20ef0f, 2023-11-25)"
   sodipodi:docname="eauOpen.svg"
   xmlns:inkscape="http://www.inkscape.org/namespaces/inkscape"
   xmlns:sodipodi="http://sodipodi.sourceforge.net/DTD/sodipodi-0.dtd"
   xmlns="http://www.w3.org/2000/svg"
   xmlns:svg="http://www.w3.org/2000/svg">
  <sodipodi:namedview
     id="namedview1"
     pagecolor="#505050"
     bordercolor="#eeeeee"
     borderopacity="1"
     inkscape:showpageshadow="0"
     inkscape:pageopacity="0"
     inkscape:pagecheckerboard="0"
     inkscape:deskcolor="#d1d1d1"
     inkscape:document-units="px"
     inkscape:zoom="3.8803576"
     inkscape:cx="155.26919"
     inkscape:cy="34.532899"
     inkscape:window-width="1920"
     inkscape:window-height="1048"
     inkscape:window-x="0"
     inkscape:window-y="0"
     inkscape:window-maximized="1"
     inkscape:current-layer="layer1"
     showgrid="false" />
  <defs
     id="defs1" />
  <g
     inkscape:label="Calque 1"
     inkscape:groupmode="layer"
     id="layer1"
     transform="translate(7.2269974,-244.68677)">
    <path
       id="path23"
       style="fill:#afdde9;stroke:none;stroke-width:2.23967;stroke-linecap:round;stroke-linejoin:round;paint-order:fill markers stroke"
       d="m 52.565798,259.26106 -1.122021,0.83697 -0.257359,1.2044 1.669545,0.95069 0.811443,-0.32151 z m -0.157477,0.87778 0.842792,1.5529 -0.375465,0.15821 -1.350947,-0.83039 0.29454,-0.61751 z" />
    <path
       style="fill:#afdde9;stroke:none;stroke-width:2.29286;stroke-linecap:round;stroke-linejoin:round;paint-order:fill markers stroke"
       d="m -6.6793667,262.31544 11.6476766,-0.15007 2.333519,0.77214 2.245702,-0.99294 2.5963001,0.32177 -1.79165,1.02098 H 8.7309929 l -1.830091,0.89303 -2.270355,-1.10053 z"
       id="path15" />
    <path
       style="fill:#afdde9;stroke:none;stroke-width:2.23967;stroke-linecap:round;stroke-linejoin:round;paint-order:fill markers stroke"
       d="m 62.358295,263.49098 -10.108777,0.18371 -1.4617,-0.69074 -1.048911,0.87039 -1.955736,-0.4776 -0.19808,0.34395 -1.98656,-1.67318 3.795145,1.0476 1.509675,-1.18298 2.231169,1.00083 z"
       id="path16"
       sodipodi:nodetypes="ccccccccccc" />
    <path
       style="fill:#afdde9;stroke:none;stroke-width:2.57835;stroke-linecap:round;stroke-linejoin:round;paint-order:fill markers stroke"
       d="m 17.011481,261.72196 c 2.00646,-1.41292 -1.216716,-6.15512 -2.053459,-6.71756 -0.836743,-0.56245 -3.962803,2.27315 -5.6084691,3.60608 -1.645663,1.33295 -0.07179,2.72651 -0.07179,2.72651 l -1.678215,0.74063 1.06531,-1.00354 c 0,0 -1.613981,-1.8587 -0.421962,-2.77115 1.192021,-0.91247 5.8869001,-5.34837 6.8171931,-4.69412 0.930291,0.65424 5.803095,5.83652 1.95139,8.11315 z"
       id="path17" />
    <path
       style="fill:#afdde9;stroke:none;stroke-width:2.57835;stroke-linecap:round;stroke-linejoin:round;paint-order:fill markers stroke"
       d="m 13.616337,261.41339 c 0,0 -2.073785,0.74722 -0.83824,1.4779 1.235545,0.73069 2.968384,-0.62227 0.83824,-1.4779 z"
       id="path18" />
    <path
       style="fill:#afdde9;stroke:none;stroke-width:2.23967;stroke-linecap:round;stroke-linejoin:round;paint-order:fill markers stroke"
       d="m 45.156681,262.81225 -1.300841,-0.9914 -1.302848,1.63286 1.324521,0.67702 0.148501,-1.03066 z"
       id="path19" />
    <path
       style="fill:#afdde9;stroke:none;stroke-width:2.23967;stroke-linecap:round;stroke-linejoin:round;paint-order:fill markers stroke"
       d="m 47.897543,261.8245 1.056613,0.37224 c 0,0 -0.597596,-11.28587 -3.093512,-13.86254 0,0 2.544479,3.81142 2.036899,13.4903 z"
       id="path20" />
    <path
       style="fill:#afdde9;stroke:none;stroke-width:2.23967;stroke-linecap:round;stroke-linejoin:round;paint-order:fill markers stroke"
       d="m 49.566097,262.13255 0.851508,-0.74244 c 0,0 0.654553,-13.53643 -0.841807,-15.36956 0,0 1.169552,12.55408 -0.0097,16.112 z"
       id="path21" />
    <path
       style="fill:#afdde9;stroke:none;stroke-width:2.23967;stroke-linecap:round;stroke-linejoin:round;paint-order:fill markers stroke"
       d="m 46.486717,257.25337 c 0.779498,1.04608 0.578204,4.52711 0.578204,4.52711 h -0.85524 c 0,0 0.964891,-0.19301 0.277036,-4.52711 z"
       id="path22" />
    <path
       id="circle1"
       style="fill:#afdde9;stroke-width:0.78619;stroke-linecap:round;stroke-linejoin:round;paint-order:fill markers stroke"
       d="m 41.893305,259.91496 a 1.3932763,1.3932763 0 0 0 -1.393236,1.39324 1.3932763,1.3932763 0 0 0 0.242614,0.78184 1.1704685,1.1704685 0 0 1 -0.126426,-0.52413 1.1704685,1.1704685 0 0 1 1.170329,-1.17032 1.1704685,1.1704685 0 0 1 1.170584,1.17032 1.1704685,1.1704685 0 0 1 -0.794636,1.1061 1.3932763,1.3932763 0 0 0 1.124007,-1.36381 1.3932763,1.3932763 0 0 0 -1.393236,-1.39324 z" />
    <path
       id="path1"
       style="fill:#afdde9;stroke-width:1.22746;stroke-linecap:round;stroke-linejoin:round;paint-order:fill markers stroke"
       d="m 18.661283,259.0179 a 2.1752858,2.1752858 0 0 0 1.024348,2.90068 2.1752858,2.1752858 0 0 0 1.264663,0.18472 1.8274218,1.8274218 0 0 1 -0.823415,-0.17485 1.8274218,1.8274218 0 0 1 -0.860449,-2.43658 1.8274218,1.8274218 0 0 1 2.436752,-0.86082 1.8274218,1.8274218 0 0 1 1.022961,1.86414 2.1752858,2.1752858 0 0 0 -1.164182,-2.50163 2.1752858,2.1752858 0 0 0 -2.900678,1.02434 z" />
    <path
       id="path2"
       style="fill:#afdde9;stroke-width:0.574446;stroke-linecap:round;stroke-linejoin:round;paint-order:fill markers stroke"
       d="m 26.592119,259.20266 a 1.018025,1.018025 0 0 0 -1.388936,0.37881 1.018025,1.018025 0 0 0 -0.129505,0.58394 0.85522606,0.85522606 0 0 1 0.109792,-0.37834 0.85522606,0.85522606 0 0 1 1.166712,-0.31819 0.85522606,0.85522606 0 0 1 0.318363,1.16681 0.85522606,0.85522606 0 0 1 -0.905091,0.41364 1.018025,1.018025 0 0 0 1.207472,-0.45774 1.018025,1.018025 0 0 0 -0.378807,-1.38893 z" />
    <path
       id="path3"
       style="fill:#afdde9;stroke-width:0.574446;stroke-linecap:round;stroke-linejoin:round;paint-order:fill markers stroke"
       d="m 33.895937,258.84249 a 1.018025,1.018025 0 0 0 0.131176,1.43368 1.018025,1.018025 0 0 0 0.552469,0.2292 0.85522606,0.85522606 0 0 1 -0.353442,-0.17399 0.85522606,0.85522606 0 0 1 -0.110177,-1.20429 0.85522606,0.85522606 0 0 1 1.20442,-0.11033 0.85522606,0.85522606 0 0 1 0.249723,0.96329 1.018025,1.018025 0 0 0 -0.240497,-1.26873 1.018025,1.018025 0 0 0 -1.433672,0.13117 z" />
    <path
       id="path4"
       style="fill:#afdde9;stroke-width:1.22746;stroke-linecap:round;stroke-linejoin:round;paint-order:fill markers stroke"
       d="m 40.169541,258.02449 a 2.1752858,2.1752858 0 0 0 -2.110898,1.03691 2.1752858,2.1752858 0 0 0 -0.306609,1.24089 1.8274218,1.8274218 0 0 1 0.25402,-0.80267 1.8274218,1.8274218 0 0 1 2.508678,-0.62006 1.8274218,1.8274218 0 0 1 0.771878,0.9382 l 0.755185,-0.11117 a 2.1752858,2.1752858 0 0 0 -0.996976,-1.38366 2.1752858,2.1752858 0 0 0 -0.875277,-0.29844 z" />
    <path
       id="path5"
       style="fill:#afdde9;stroke-width:0.772822;stroke-linecap:round;stroke-linejoin:round;paint-order:fill markers stroke"
       d="m 11.45567,266.50749 a 1.3695837,1.3695837 0 0 0 1.91917,-0.26097 1.3695837,1.3695837 0 0 0 0.275441,-0.75609 1.1505647,1.1505647 0 0 1 -0.212981,0.48531 1.1505647,1.1505647 0 0 1 -1.612111,0.21921 1.1505647,1.1505647 0 0 1 -0.219414,-1.61226 1.1505647,1.1505647 0 0 1 1.279949,-0.39253 1.3695837,1.3695837 0 0 0 -1.691011,0.39816 1.3695837,1.3695837 0 0 0 0.260957,1.91917 z" />
    <path
       id="path6"
       style="fill:#afdde9;stroke-width:0.423532;stroke-linecap:round;stroke-linejoin:round;paint-order:fill markers stroke"
       d="m 26.381988,257.65717 a 0.75057773,0.75057773 0 0 0 1.051769,-0.14302 0.75057773,0.75057773 0 0 0 0.150951,-0.41436 0.63054798,0.63054798 0 0 1 -0.116721,0.26597 0.63054798,0.63054798 0 0 1 -0.883491,0.12013 0.63054798,0.63054798 0 0 1 -0.120246,-0.88357 0.63054798,0.63054798 0 0 1 0.701455,-0.21512 0.75057773,0.75057773 0 0 0 -0.926731,0.2182 0.75057773,0.75057773 0 0 0 0.143014,1.05177 z" />
    <path
       id="path7"
       style="fill:#afdde9;stroke-width:0.423532;stroke-linecap:round;stroke-linejoin:round;paint-order:fill markers stroke"
       d="m 30.366121,258.24222 a 0.75057773,0.75057773 0 0 0 0.232965,1.03557 0.75057773,0.75057773 0 0 0 0.425809,0.11475 0.63054798,0.63054798 0 0 1 -0.275025,-0.0934 0.63054798,0.63054798 0 0 1 -0.195684,-0.86989 0.63054798,0.63054798 0 0 1 0.869951,-0.1958 0.63054798,0.63054798 0 0 1 0.274663,0.68035 0.75057773,0.75057773 0 0 0 -0.29711,-0.90453 0.75057773,0.75057773 0 0 0 -1.035569,0.23296 z" />
    <path
       id="path8"
       style="fill:#afdde9;stroke-width:0.423532;stroke-linecap:round;stroke-linejoin:round;paint-order:fill markers stroke"
       d="m 51.411738,266.27276 a 0.75057773,0.75057773 0 0 0 -0.512277,-0.92965 0.75057773,0.75057773 0 0 0 -0.440918,0.008 0.63054798,0.63054798 0 0 1 0.29016,0.0131 0.63054798,0.63054798 0 0 1 0.430308,0.78091 0.63054798,0.63054798 0 0 1 -0.780944,0.43045 0.63054798,0.63054798 0 0 1 -0.45335,-0.57688 0.75057773,0.75057773 0 0 0 0.53737,0.78592 0.75057773,0.75057773 0 0 0 0.929651,-0.51227 z" />
    <path
       id="path9"
       style="fill:#afdde9;stroke-width:0.361236;stroke-linecap:round;stroke-linejoin:round;paint-order:fill markers stroke"
       d="m 29.05677,257.29191 a 0.99949338,0.99949338 0 0 1 0.843154,0.48296 0.99949338,0.99949338 0 0 1 0.14104,0.5701 0.83965794,0.83965794 0 0 0 -0.116821,-0.36875 0.83965794,0.83965794 0 0 0 -1.152539,-0.28493 0.83965794,0.83965794 0 0 0 -0.354738,0.43119 l -0.346901,-0.0511 a 0.99949338,0.99949338 0 0 1 0.458024,-0.63587 0.99949338,0.99949338 0 0 1 0.402225,-0.137 0.99949338,0.99949338 0 0 1 0.126556,-0.007 z m -0.91866,0.87521 a 0.64017815,0.64017815 0 0 1 0.640142,0.64014 0.64017815,0.64017815 0 0 1 -0.111598,0.35925 0.53780313,0.53780313 0 0 0 0.05817,-0.24076 0.53780313,0.53780313 0 0 0 -0.537805,-0.5378 0.53780313,0.53780313 0 0 0 -0.537804,0.5378 0.53780313,0.53780313 0 0 0 0.365185,0.50812 0.64017815,0.64017815 0 0 1 -0.516435,-0.62661 0.64017815,0.64017815 0 0 1 0.640141,-0.64014 z" />
    <path
       id="path10"
       style="fill:#afdde9;stroke-width:0.364917;stroke-linecap:round;stroke-linejoin:round;paint-order:fill markers stroke"
       d="m 37.949377,256.64025 a 1.0096785,1.0096785 0 0 1 0.851746,0.4879 1.0096785,1.0096785 0 0 1 0.142485,0.5759 0.84821432,0.84821432 0 0 0 -0.118006,-0.37251 0.84821432,0.84821432 0 0 0 -1.164284,-0.28783 0.84821432,0.84821432 0 0 0 -0.358352,0.43559 l -0.350437,-0.0516 a 1.0096785,1.0096785 0 0 1 0.462692,-0.64234 1.0096785,1.0096785 0 0 1 0.406324,-0.13846 1.0096785,1.0096785 0 0 1 0.127853,-0.007 z m -0.928021,0.88413 a 0.64670176,0.64670176 0 0 1 0.646665,0.64666 0.64670176,0.64670176 0 0 1 -0.112735,0.36292 0.54328351,0.54328351 0 0 0 0.05876,-0.2432 0.54328351,0.54328351 0 0 0 -0.543287,-0.54329 0.54328351,0.54328351 0 0 0 -0.543282,0.54329 0.54328351,0.54328351 0 0 0 0.368906,0.51328 0.64670176,0.64670176 0 0 1 -0.521699,-0.633 0.64670176,0.64670176 0 0 1 0.646665,-0.64666 z" />
    <path
       style="fill:#afdde9;stroke-width:1.5875;stroke-linecap:round;stroke-linejoin:round;paint-order:fill markers stroke"
       d="m 30.387043,275.4191 c 0.631394,-0.90991 1.837526,-4.36484 0.587944,-6.03091 -1.249579,-1.66608 -0.27863,-2.77093 0.528648,-4.18759 0.807278,-1.41666 -0.396687,-2.56011 -0.396687,-2.56011 0,0 1.997413,1.21772 1.090878,2.8806 -0.906534,1.66288 -1.817015,1.93988 -0.428504,3.90503 1.388511,1.96515 -0.237328,6.01204 -0.237328,6.01204 z"
       id="path12"
       sodipodi:nodetypes="ccscsscc" />
    <path
       style="fill:#afdde9;stroke-width:1.10365;stroke-linecap:round;stroke-linejoin:round;paint-order:fill markers stroke"
       d="m 50.559506,268.6964 c -0.496213,-0.65952 -0.839101,-1.88358 -2.374102,-1.79167 -1.535002,0.0919 -3.16397,-0.81014 -3.982306,-1.74202 -0.81833,-0.93188 -2.699518,-1.16133 -2.699518,-1.16133 0,0 2.14172,-0.17315 3.112963,0.8985 0.971259,1.07168 2.014926,1.65133 3.803237,1.58904 1.788324,-0.0623 2.485973,1.76177 2.485973,1.76177 z"
       id="path13"
       sodipodi:nodetypes="ccscsscc" />
    <path
       style="fill:#afdde9;stroke-width:1.10961;stroke-linecap:round;stroke-linejoin:round;paint-order:fill markers stroke"
       d="m 11.811435,268.40972 c 0.537753,-0.63539 0.997398,-2.00758 2.538801,-1.84016 1.5414,0.16743 3.234414,-0.6549 4.112336,-1.54692 0.877915,-0.89203 2.786546,-1.02908 2.786546,-1.02908 0,0 -2.148075,-0.27853 -3.188084,0.74582 -1.040012,1.02436 -2.124811,1.55293 -3.923139,1.40268 -1.798338,-0.15024 -2.605764,1.64026 -2.605764,1.64026 z"
       id="path14"
       sodipodi:nodetypes="ccscsscc"
       inkscape:transform-center-x="-3.526802"
       inkscape:transform-center-y="2.4870384" />
    <path
       id="path24"
       style="fill:#afdde9;stroke-width:0.423532;stroke-linecap:round;stroke-linejoin:round;paint-order:fill markers stroke"
       d="m 17.197606,263.32868 a 0.75057773,0.75057773 0 0 0 1.060579,0.043 0.75057773,0.75057773 0 0 0 0.221048,-0.3816 0.63054798,0.63054798 0 0 1 -0.161399,0.24148 0.63054798,0.63054798 0 0 1 -0.890896,-0.0361 0.63054798,0.63054798 0 0 1 0.03603,-0.89098 0.63054798,0.63054798 0 0 1 0.728256,-0.0892 0.75057773,0.75057773 0 0 0 -0.950607,0.0529 0.75057773,0.75057773 0 0 0 -0.043,1.06057 z" />
    <path
       id="path25"
       style="fill:#afdde9;stroke-width:0.361236;stroke-linecap:round;stroke-linejoin:round;paint-order:fill markers stroke"
       d="m 22.406609,258.49883 a 0.99949338,0.99949338 0 0 1 0.324042,-0.91606 0.99949338,0.99949338 0 0 1 0.535589,-0.24094 0.83965794,0.83965794 0 0 0 -0.341847,0.18101 0.83965794,0.83965794 0 0 0 -0.07377,1.18495 0.83965794,0.83965794 0 0 0 0.48778,0.27172 l 0.01189,0.35044 a 0.99949338,0.99949338 0 0 1 -0.707656,-0.33665 0.99949338,0.99949338 0 0 1 -0.206865,-0.37117 0.99949338,0.99949338 0 0 1 -0.02957,-0.12324 z m 1.02567,0.74694 a 0.64017815,0.64017815 0 0 1 0.515061,-0.74449 0.64017815,0.64017815 0 0 1 0.373435,0.0454 0.53780313,0.53780313 0 0 0 -0.247291,-0.0141 0.53780313,0.53780313 0 0 0 -0.432715,0.62548 0.53780313,0.53780313 0 0 0 0.62547,0.43272 0.53780313,0.53780313 0 0 0 0.434452,-0.45033 0.64017815,0.64017815 0 0 1 -0.523919,0.62037 0.64017815,0.64017815 0 0 1 -0.744493,-0.51507 z" />
    <path
       style="fill:#afdde9;stroke-width:2.59945;stroke-linecap:round;stroke-linejoin:round;paint-order:fill markers stroke"
       d="m 36.471559,264.00338 c 0,0 3.129675,0.34987 3.535811,2.89999 0.406134,2.55013 3.247598,6.61549 3.247598,6.61549 l 0.619194,-0.66531 c 0,0 -3.064226,-3.79637 -3.370696,-5.2162 -0.306475,-1.41987 -0.381509,-3.87053 -4.031907,-3.63397 z"
       id="path26"
       sodipodi:nodetypes="csccsc" />
    <path
       style="fill:#afdde9;stroke-width:1.41009;stroke-linecap:round;stroke-linejoin:round;paint-order:fill markers stroke"
       d="m 33.047411,260.21759 c 0,0 -0.35227,0.16779 -0.08805,0.70708 0.26422,0.53928 -0.117197,1.1645 -0.117197,1.1645 0,0 1.106112,-1.86154 0.205247,-1.87158 z"
       id="path27" />
    <path
       style="fill:#afdde9;stroke-width:1.48645;stroke-linecap:round;stroke-linejoin:round;paint-order:fill markers stroke"
       d="m 36.69368,260.0767 c 0,0 -0.639646,0.24492 -0.200667,1.26471 0.201283,0.4676 0.15483,1.77681 0.15483,1.77681 0,0 0.750764,-2.94143 0.04584,-3.04152 z"
       id="path28"
       sodipodi:nodetypes="cscc" />
    <path
       style="fill:#afdde9;stroke-width:1.1441;stroke-linecap:round;stroke-linejoin:round;paint-order:fill markers stroke"
       d="m 23.29987,260.42742 c 0,0 0.577099,0.16082 0.181045,0.83044 -0.181601,0.30704 -0.13969,1.1667 -0.13969,1.1667 0,0 -0.677352,-1.93142 -0.04135,-1.99714 z"
       id="path29"
       sodipodi:nodetypes="cscc" />
    <path
       style="fill:#afdde9;stroke-width:1.732;stroke-linecap:round;stroke-linejoin:round;paint-order:fill markers stroke"
       d="m 26.84285,263.89913 c 0,0 -2.084178,0.71883 -2.797937,2.6348 -0.713757,1.91597 -5.070368,6.25993 -5.070368,6.25993 l -0.553623,-0.76853 c 0,0 4.6852,-4.49367 5.134512,-5.57234 0.449313,-1.07868 0.97051,-2.18442 3.287336,-2.55376 z"
       id="path30"
       sodipodi:nodetypes="csccscc" />
    <path
       id="path31"
       style="fill:#afdde9;stroke-width:0.609322;stroke-linecap:round;stroke-linejoin:round;paint-order:fill markers stroke"
       d="m 24.403215,255.96602 a 1.0798306,1.0798306 0 0 0 -0.641225,1.38592 1.0798306,1.0798306 0 0 0 0.385448,0.50394 0.90714793,0.90714793 0 0 1 -0.232048,-0.34751 0.90714793,0.90714793 0 0 1 0.538634,-1.16417 0.90714793,0.90714793 0 0 1 1.164365,0.53855 0.90714793,0.90714793 0 0 1 -0.282488,1.01706 1.0798306,1.0798306 0 0 0 0.453231,-1.29256 1.0798306,1.0798306 0 0 0 -1.385917,-0.64123 z" />
    <path
       id="path32"
       style="fill:#afdde9;stroke-width:0.609322;stroke-linecap:round;stroke-linejoin:round;paint-order:fill markers stroke"
       d="m 34.129394,257.04196 a 1.0798306,1.0798306 0 0 0 -1.383291,-0.64688 1.0798306,1.0798306 0 0 0 -0.505509,0.38339 0.90714793,0.90714793 0 0 1 0.348454,-0.23063 0.90714793,0.90714793 0 0 1 1.161962,0.54338 0.90714793,0.90714793 0 0 1 -0.543298,1.16216 0.90714793,0.90714793 0 0 1 -1.015899,-0.28664 1.0798306,1.0798306 0 0 0 1.290699,0.4585 1.0798306,1.0798306 0 0 0 0.646882,-1.38328 z" />
    <path
       id="path33"
       style="fill:#afdde9;stroke-width:0.206905;stroke-linecap:round;stroke-linejoin:round;paint-order:fill markers stroke"
       d="m 45.346306,264.23329 a 0.36667449,0.36667449 0 0 0 0.04725,0.51639 0.36667449,0.36667449 0 0 0 0.198989,0.0825 0.3080372,0.3080372 0 0 1 -0.127303,-0.0627 0.3080372,0.3080372 0 0 1 -0.03968,-0.43376 0.3080372,0.3080372 0 0 1 0.433811,-0.0397 0.3080372,0.3080372 0 0 1 0.08995,0.34696 0.36667449,0.36667449 0 0 0 -0.08662,-0.45698 0.36667449,0.36667449 0 0 0 -0.516384,0.0473 z" />
    <path
       id="path36"
       style="fill:#afdde9;stroke-width:0.78619;stroke-linecap:round;stroke-linejoin:round;paint-order:fill markers stroke"
       d="m 41.904173,255.71073 a 1.3932763,1.3932763 0 0 0 -1.393236,1.39324 1.3932763,1.3932763 0 0 0 0.242614,0.78184 1.1704685,1.1704685 0 0 1 -0.126426,-0.52413 1.1704685,1.1704685 0 0 1 1.170329,-1.17032 1.1704685,1.1704685 0 0 1 1.170584,1.17032 1.1704685,1.1704685 0 0 1 -0.794636,1.1061 1.3932763,1.3932763 0 0 0 1.124007,-1.36381 1.3932763,1.3932763 0 0 0 -1.393236,-1.39324 z" />
  </g>
</svg>
