<?xml version="1.0" encoding="UTF-8" standalone="no"?>
<!-- Created with Inkscape (http://www.inkscape.org/) -->

<svg
   width="96.505859"
   height="118.61154"
   viewBox="0 0 25.533842 31.382637"
   version="1.1"
   id="svg1"
   inkscape:version="1.3.2 (091e20ef0f, 2023-11-25)"
   sodipodi:docname="fm.svg"
   xmlns:inkscape="http://www.inkscape.org/namespaces/inkscape"
   xmlns:sodipodi="http://sodipodi.sourceforge.net/DTD/sodipodi-0.dtd"
   xmlns="http://www.w3.org/2000/svg"
   xmlns:svg="http://www.w3.org/2000/svg">
  <sodipodi:namedview
     id="namedview1"
     pagecolor="#505050"
     bordercolor="#eeeeee"
     borderopacity="1"
     inkscape:showpageshadow="0"
     inkscape:pageopacity="0"
     inkscape:pagecheckerboard="0"
     inkscape:deskcolor="#d1d1d1"
     inkscape:document-units="px"
     inkscape:zoom="3.8803576"
     inkscape:cx="41.104459"
     inkscape:cy="40.460189"
     inkscape:window-width="1920"
     inkscape:window-height="1048"
     inkscape:window-x="0"
     inkscape:window-y="0"
     inkscape:window-maximized="1"
     inkscape:current-layer="layer1" />
  <defs
     id="defs1" />
  <g
     inkscape:label="Calque 1"
     inkscape:groupmode="layer"
     id="layer1"
     transform="translate(-4.4868778,-263.8442)">
    <path
       id="path1"
       style="fill:#2b0011;stroke:none;stroke-width:0.1;paint-order:fill markers stroke"
       d="m 13.330266,263.84667 c -1.039649,-0.0436 -2.459724,0.48665 -4.3909468,1.91617 -6.7183162,4.97296 -2.5236059,11.26845 1.1301638,16.15198 -2.2994029,1.29368 -5.0534385,2.14612 -5.0534385,2.14612 0,0 3.0681484,-0.34814 5.7366005,-1.23765 1.858399,2.46453 3.37257,4.49993 2.869076,5.69061 -1.553487,3.67373 -2.423149,4.40329 -3.9899376,6.1836 0,0 2.6102816,-1.01352 5.1082156,-5.81411 1.063022,-2.04295 0.03054,-4.68463 -1.27124,-7.34684 0.04749,-0.0347 0.0965,-0.0689 0.141593,-0.10439 0.792702,-0.62386 3.239841,-3.03439 4.324801,-2.36729 2.28861,1.40715 3.503221,7.23657 5.360396,7.31118 2.818617,0.11323 2.456783,-13.22314 6.725171,-4.50154 -0.801324,-4.14364 -1.011573,-6.37571 -3.162081,-4.05505 -0.886699,0.95686 -2.936498,6.644 -3.554305,6.42235 -0.880559,-0.31593 -1.662862,-3.24945 -2.477368,-5.29683 -1.385972,-3.48385 -6.46202,-1.58858 -8.100798,0.82682 -0.0253,0.0373 -0.05479,0.0741 -0.08216,0.1111 -1.526597,-3.02251 -2.9175008,-5.91767 -1.457275,-7.82277 3.003992,-3.9192 4.721158,-0.57878 4.721158,-0.57878 0,0 1.13541,-7.47876 -2.57762,-7.63468 z" />
    <path
       style="fill:#550022;stroke:none;stroke-width:0.1;paint-order:fill markers stroke"
       d="m 9.1025206,295.22684 c 0,0 2.6104764,-1.01366 5.1084124,-5.81426 2.497935,-4.80061 -6.5573037,-12.90401 -3.55331,-16.82321 3.003995,-3.9192 4.720974,-0.57886 4.720974,-0.57886 0,0 1.860102,-12.25338 -6.9683524,-5.71846 -10.6748726,7.90165 6.2056594,19.14916 4.6825074,22.75115 -1.553489,3.67373 -2.423442,4.40332 -3.9902314,6.18364 z"
       id="path22"
       sodipodi:nodetypes="ccscssc" />
    <path
       style="fill:#550022;stroke:none;stroke-width:0.1;paint-order:fill markers stroke"
       d="m 29.491526,282.40375 c -0.801325,-4.14365 -1.011688,-6.37601 -3.162198,-4.05534 -0.8867,0.95686 -2.936102,6.64408 -3.55391,6.42243 -0.88056,-0.31593 -1.663341,-3.24921 -2.477848,-5.2966 -1.385973,-3.48385 -6.462009,-1.58866 -8.100788,0.82674 -1.63878,2.4154 -7.7099042,4.28922 -7.7099042,4.28922 0,0 6.1293532,-0.689 8.5941782,-2.62884 0.792703,-0.62386 3.240156,-3.03421 4.325117,-2.36711 2.288613,1.40716 3.502913,7.23616 5.36009,7.31077 2.81862,0.11323 2.456871,-13.22288 6.725263,-4.50127 z"
       id="path23"
       sodipodi:nodetypes="cssssccssc" />
  </g>
</svg>
