<?xml version="1.0" encoding="UTF-8" standalone="no"?>
<!-- Created with Inkscape (http://www.inkscape.org/) -->

<svg
   width="151.22826mm"
   height="56.97501mm"
   viewBox="0 0 151.22825 56.975007"
   version="1.1"
   id="svg1"
   sodipodi:docname="lfo.svg"
   inkscape:version="1.3.2 (091e20ef0f, 2023-11-25)"
   xmlns:inkscape="http://www.inkscape.org/namespaces/inkscape"
   xmlns:sodipodi="http://sodipodi.sourceforge.net/DTD/sodipodi-0.dtd"
   xmlns="http://www.w3.org/2000/svg"
   xmlns:svg="http://www.w3.org/2000/svg">
  <sodipodi:namedview
     id="namedview1"
     pagecolor="#505050"
     bordercolor="#eeeeee"
     borderopacity="1"
     inkscape:showpageshadow="0"
     inkscape:pageopacity="0"
     inkscape:pagecheckerboard="0"
     inkscape:deskcolor="#d1d1d1"
     inkscape:document-units="mm"
     inkscape:zoom="1.3719136"
     inkscape:cx="254.3892"
     inkscape:cy="86.011249"
     inkscape:window-width="1920"
     inkscape:window-height="1048"
     inkscape:window-x="0"
     inkscape:window-y="0"
     inkscape:window-maximized="1"
     inkscape:current-layer="layer1" />
  <defs
     id="defs1" />
  <g
     inkscape:label="Calque 1"
     inkscape:groupmode="layer"
     id="layer1"
     transform="translate(-8.8251943,-141.18274)">
    <path
       style="opacity:0.25;fill:none;stroke:#676c53;stroke-width:4;stroke-linecap:round;stroke-linejoin:round;paint-order:fill markers stroke"
       d="m 10.883528,196.15775 c 0,0 11.321806,-52.91667 18.39624,-52.91667 7.074434,0 18.39624,52.91667 18.39624,52.91667 0,0 11.321806,-52.91667 18.396241,-52.91667 7.074435,0 18.39624,52.91667 18.39624,52.91667 0,0 11.321806,-52.91667 18.396241,-52.91667 7.07443,0 18.39624,52.91667 18.39624,52.91667 0,0 11.32181,-52.91667 18.39624,-52.91667 7.07443,0 18.39624,52.91667 18.39624,52.91667"
       id="path73"
       sodipodi:nodetypes="czczczczc" />
    <path
       style="opacity:0.25;fill:none;stroke:#e3f4d7;stroke-width:0.5;stroke-linecap:round;stroke-linejoin:round;paint-order:fill markers stroke"
       d="m 9.8251943,195.09941 c 0,0 11.3218057,-52.91667 18.3962397,-52.91667 7.074434,0 18.39624,52.91667 18.39624,52.91667 0,0 11.321806,-52.91667 18.396241,-52.91667 7.074435,0 18.39624,52.91667 18.39624,52.91667 0,0 11.321806,-52.91667 18.396235,-52.91667 7.07443,0 18.39624,52.91667 18.39624,52.91667 0,0 11.32181,-52.91667 18.39624,-52.91667 7.07443,0 18.39624,52.91667 18.39624,52.91667"
       id="path77"
       sodipodi:nodetypes="czczczczc" />
    <path
       id="path75"
       style="opacity:0.25;fill:#7c916f;stroke:none;stroke-width:4;stroke-linecap:round;stroke-linejoin:round;paint-order:fill markers stroke"
       d="m 66.072407,148.7287 c -0.651076,1.09506 -1.371073,2.39888 -2.164209,4.3124 -1.939764,4.67987 -4.000779,11.20497 -5.835819,17.74 -3.483084,12.40412 -6.026841,24.13824 -6.29419,25.37674 h 28.588436 c -0.267345,-1.23848 -2.811104,-12.97261 -6.294189,-25.37674 -1.83504,-6.53503 -3.896571,-13.06013 -5.836336,-17.74 -0.793136,-1.91352 -1.512616,-3.21734 -2.163693,-4.3124 z m -36.793103,0.002 c -0.650885,1.09503 -1.371477,2.3983 -2.164209,4.31085 -1.939764,4.67987 -4.000779,11.20497 -5.835819,17.74 -3.483085,12.40413 -6.026844,24.13826 -6.29419,25.37674 h 28.588436 c -0.267345,-1.23848 -2.811104,-12.97261 -6.294189,-25.37674 -1.83504,-6.53503 -3.896055,-13.06013 -5.83582,-17.74 -0.792848,-1.91283 -1.513268,-3.21581 -2.164209,-4.31085 z m 73.585686,0 c -0.65094,1.09504 -1.37084,2.39802 -2.16369,4.31085 -1.939762,4.67987 -4.000777,11.20497 -5.835818,17.74 -3.483085,12.40413 -6.027361,24.13826 -6.294706,25.37674 h 28.588434 c -0.26735,-1.2385 -2.8111,-12.97262 -6.29419,-25.37674 -1.83504,-6.53503 -3.89606,-13.06013 -5.83582,-17.74 -0.79273,-1.91255 -1.51332,-3.21582 -2.16421,-4.31085 z m 36.79104,0 c -0.65087,1.09503 -1.36943,2.39836 -2.16214,4.31085 -1.93977,4.67987 -4.00077,11.20497 -5.83582,17.74 -3.48309,12.40415 -6.02874,24.13829 -6.29626,25.37674 h 28.5905 c -0.26752,-1.23847 -2.81317,-12.9726 -6.29625,-25.37674 -1.83504,-6.53503 -3.89605,-13.06013 -5.83582,-17.74 -0.79285,-1.91283 -1.51327,-3.21581 -2.16421,-4.31085 z" />
    <path
       id="path78"
       style="opacity:0.25;fill:#d5ffd5;stroke:none;stroke-width:4;stroke-linecap:round;stroke-linejoin:round;paint-order:fill markers stroke"
       d="m 67.130741,149.78704 c -0.651076,1.09506 -1.371073,2.39888 -2.164209,4.3124 -1.939764,4.67987 -4.000779,11.20497 -5.835819,17.74 -3.483084,12.40412 -6.026841,24.13824 -6.29419,25.37674 h 28.588436 c -0.267345,-1.23848 -2.811104,-12.97261 -6.294189,-25.37674 -1.83504,-6.53503 -3.896571,-13.06013 -5.836336,-17.74 -0.793136,-1.91352 -1.512616,-3.21734 -2.163693,-4.3124 z m -36.793103,0.002 c -0.650885,1.09503 -1.371477,2.3983 -2.164209,4.31085 -1.939764,4.67987 -4.000779,11.20497 -5.835819,17.74 -3.483085,12.40413 -6.026844,24.13826 -6.29419,25.37674 h 28.588436 c -0.267345,-1.23848 -2.811104,-12.97261 -6.294189,-25.37674 -1.83504,-6.53503 -3.896055,-13.06013 -5.83582,-17.74 -0.792848,-1.91283 -1.513268,-3.21581 -2.164209,-4.31085 z m 73.585692,0 c -0.65094,1.09504 -1.37084,2.39802 -2.16369,4.31085 -1.939768,4.67987 -4.000783,11.20497 -5.835824,17.74 -3.483085,12.40413 -6.027361,24.13826 -6.294706,25.37674 h 28.58844 c -0.26735,-1.2385 -2.8111,-12.97262 -6.29419,-25.37674 -1.83504,-6.53503 -3.89606,-13.06013 -5.83582,-17.74 -0.79273,-1.91255 -1.51332,-3.21582 -2.16421,-4.31085 z m 36.79104,0 c -0.65087,1.09503 -1.36943,2.39836 -2.16214,4.31085 -1.93977,4.67987 -4.00077,11.20497 -5.83582,17.74 -3.48309,12.40415 -6.02874,24.13829 -6.29626,25.37674 h 28.5905 c -0.26752,-1.23847 -2.81317,-12.9726 -6.29625,-25.37674 -1.83504,-6.53503 -3.89605,-13.06013 -5.83582,-17.74 -0.79285,-1.91283 -1.51327,-3.21581 -2.16421,-4.31085 z" />
  </g>
</svg>
