<?xml version="1.0" encoding="UTF-8" standalone="no"?>
<!-- Created with Inkscape (http://www.inkscape.org/) -->

<svg
   width="160.67793"
   height="165.765"
   viewBox="0 0 42.512703 43.858656"
   version="1.1"
   id="svg1"
   inkscape:version="1.3.2 (091e20ef0f, 2023-11-25)"
   sodipodi:docname="pasOpen.svg"
   xmlns:inkscape="http://www.inkscape.org/namespaces/inkscape"
   xmlns:sodipodi="http://sodipodi.sourceforge.net/DTD/sodipodi-0.dtd"
   xmlns="http://www.w3.org/2000/svg"
   xmlns:svg="http://www.w3.org/2000/svg">
  <sodipodi:namedview
     id="namedview1"
     pagecolor="#505050"
     bordercolor="#eeeeee"
     borderopacity="1"
     inkscape:showpageshadow="0"
     inkscape:pageopacity="0"
     inkscape:pagecheckerboard="0"
     inkscape:deskcolor="#d1d1d1"
     inkscape:document-units="px"
     inkscape:zoom="2.7438272"
     inkscape:cx="35.169854"
     inkscape:cy="89.291338"
     inkscape:window-width="1920"
     inkscape:window-height="1048"
     inkscape:window-x="0"
     inkscape:window-y="0"
     inkscape:window-maximized="1"
     inkscape:current-layer="layer1"
     showgrid="false" />
  <defs
     id="defs1" />
  <g
     inkscape:label="Calque 1"
     inkscape:groupmode="layer"
     id="layer1"
     transform="translate(-8.9622144,-240.51817)">
    <path
       id="path5"
       style="fill:#afdde9;stroke:none;stroke-width:1.21812;stroke-linecap:round;stroke-linejoin:round;paint-order:fill markers stroke"
       d="M 42.800459 241.22614 C 42.800459 241.22614 43.462859 241.56176 43.895999 242.59711 C 43.803249 241.32676 42.800459 241.22614 42.800459 241.22614 z M 39.559313 242.12841 C 39.559313 242.12841 43.99137 243.89322 44.998258 245.51218 C 44.289178 242.82389 39.559313 242.12841 39.559313 242.12841 z M 40.039904 243.9438 C 40.039904 243.9438 42.841116 244.81702 43.426261 245.76436 C 42.91913 244.50353 40.039904 243.9438 40.039904 243.9438 z M 49.17423 244.628 C 49.09014 244.6394 49.004073 244.65636 48.916881 244.67606 L 49.253812 249.62717 L 48.017195 244.9856 C 47.943765 245.0181 47.87084 245.0505 47.79757 245.08585 L 47.833743 247.53221 L 47.136628 245.43777 C 46.313062 245.91929 45.600044 246.48194 45.324853 246.75138 C 44.651871 247.4103 42.980293 252.03943 42.980293 252.03943 L 46.246243 254.15455 C 46.246243 254.15455 47.690317 252.02676 49.206786 250.97076 C 49.650963 250.66146 50.031933 250.12985 50.324031 249.50367 L 49.17423 244.628 z M 22.53813 246.56328 C 21.621271 246.56328 20.871906 247.77919 21.684435 247.94924 C 22.496964 248.11929 22.799762 249.00063 23.336014 248.17558 C 23.872265 247.35052 23.454988 246.56328 22.53813 246.56328 z M 18.527522 247.18133 C 18.219329 247.17733 17.911042 247.39123 17.553938 247.99523 C 16.411208 249.92805 17.300306 251.77226 19.254093 251.77226 C 21.207881 251.77226 22.804051 248.92432 21.072586 248.52595 C 19.882204 248.25208 19.205545 247.19012 18.527522 247.18133 z M 34.528096 252.02083 C 32.96446 252.07953 31.06847 252.88831 30.398115 253.96748 C 29.423047 255.5372 27.37401 257.0908 27.37401 257.0908 L 29.657592 260.241 C 29.657592 260.241 34.192152 258.32966 34.8149 257.62307 C 35.398726 256.96064 37.401626 253.91837 36.523323 252.67453 C 36.464773 252.59163 36.393275 252.51647 36.307832 252.45077 C 35.880657 252.12229 35.238839 251.99417 34.528096 252.02083 z M 41.927127 252.81768 C 41.927127 252.81768 38.583047 254.89104 41.248099 256.75129 C 43.913055 258.61122 45.834899 255.27644 45.834899 255.27644 L 41.927127 252.81768 z M 10.036567 256.76524 C 8.807937 259.38651 11.289411 261.49659 11.889168 261.95614 L 12.245218 262.82999 L 12.433837 262.64085 L 12.123779 261.97784 C 13.886205 260.68702 12.265731 258.72606 11.062345 257.61377 L 11.061828 257.61325 C 10.504333 257.09784 10.036567 256.76524 10.036567 256.76524 z M 46.9847 257.42773 C 46.319846 257.42073 45.648199 257.85346 45.050451 259.01885 C 42.925122 263.1625 43.804485 262.47334 47.347468 262.24036 C 50.890452 262.00737 50.99872 262.36933 50.615486 261.18306 C 50.340031 260.33033 48.683767 257.44476 46.9847 257.42773 z M 26.274853 257.56054 C 26.274853 257.56054 23.045544 259.65424 25.042887 262.21814 C 27.040236 264.78203 28.935672 261.33344 28.935672 261.33344 L 26.274853 257.56054 z M 47.244632 258.00961 C 47.619424 257.99641 47.976614 258.17551 48.299348 258.45609 L 47.724189 259.38885 L 48.45076 258.59717 C 48.47056 258.61697 48.490181 258.63713 48.509671 258.65763 L 48.339139 259.1961 L 48.632661 258.79354 C 48.651831 258.81584 48.671212 258.8373 48.690022 258.8602 L 48.611474 259.1868 L 48.757718 258.9465 C 49.352026 259.70773 49.749584 260.72683 49.776261 261.18668 C 49.823231 261.99627 49.480125 261.86981 47.511283 261.90446 C 44.288868 262.10978 43.676564 263.10559 45.60959 259.45397 C 46.153255 258.42693 46.715622 258.02828 47.244632 258.00961 z M 49.359749 262.66514 C 49.029261 262.66214 48.695181 262.87649 48.39805 263.45579 C 47.341583 265.51552 47.77894 265.17305 49.540099 265.05724 C 51.301259 264.94148 51.354788 265.12134 51.16429 264.53169 C 51.027367 264.10782 50.204328 262.67361 49.359749 262.66514 z M 49.363883 263.13746 C 49.590698 263.12746 49.833932 263.28505 50.068749 263.72864 C 50.859709 265.22283 50.609058 264.81517 49.290502 264.73116 C 48.48489 264.71696 48.344726 264.76886 48.363944 264.43764 C 48.382254 264.12203 48.826686 263.1608 49.363883 263.13746 z M 34.177213 265.03709 C 32.737484 265.04309 30.594737 266.40318 30.045165 266.86437 C 29.323682 267.46978 27.302697 271.95708 27.302697 271.95708 L 30.397082 274.31611 C 30.397082 274.31611 31.999844 272.30521 33.592752 271.36848 C 35.185652 270.43177 36.269317 266.88957 35.251566 265.49752 C 35.187976 265.41052 35.114991 265.33685 35.033491 265.27635 C 34.804334 265.10606 34.509457 265.0356 34.177213 265.03709 z M 18.80089 269.74688 C 17.123388 269.78098 14.759879 271.32332 14.28592 272.80871 C 13.724185 274.56916 12.117061 276.57592 12.117061 276.57592 L 15.101375 279.07241 C 15.101375 279.07241 19.031752 276.11054 19.462865 275.27315 C 19.867034 274.48812 21.06508 271.04883 19.90935 270.05745 C 19.8323 269.99135 19.744712 269.93594 19.6458 269.89312 C 19.39854 269.78607 19.111539 269.74057 18.80089 269.74688 z M 26.193204 272.65213 C 26.193204 272.65213 22.699736 274.46376 25.214452 276.52269 C 27.729094 278.5813 29.900988 275.40338 29.900988 275.40338 L 26.193204 272.65213 z M 11.166214 277.30042 C 11.166214 277.30042 11.073074 277.40066 10.939355 277.57637 L 11.726387 279.07137 L 10.500622 278.2492 C 10.439732 278.35876 10.380478 278.47413 10.324405 278.59698 L 10.82515 279.74007 L 10.072741 279.3127 C 9.8581112 280.2 9.9820128 281.23832 11.110404 282.1177 C 13.673934 284.11553 14.668843 280.30851 14.668843 280.30851 L 11.166214 277.30042 z M 43.58129 277.9934 C 43.58129 277.9934 42.704758 278.25441 41.832559 279.61191 C 41.330548 279.42699 40.943725 279.34887 40.943725 279.34887 C 40.943725 279.34887 41.007335 279.6744 41.538004 280.11679 C 41.225441 280.70461 40.926436 281.44867 40.683792 282.3921 C 41.343898 281.91303 41.882233 281.27227 42.309016 280.6289 C 42.726004 280.85569 43.269781 281.09151 43.977131 281.31671 C 43.752973 280.73712 43.236494 280.31003 42.692455 280.00413 C 43.298384 278.92822 43.58129 277.9934 43.58129 277.9934 z M 21.217797 280.75964 C 21.213597 280.75969 21.209268 280.76009 21.204878 280.76067 C 20.925957 280.79987 20.955413 281.07164 20.711368 281.24695 C 20.467324 281.42227 19.994287 281.64133 20.581143 281.87895 C 20.74506 281.94535 20.889987 282.00101 21.013158 282.03915 C 20.741289 282.05875 20.336403 282.11433 20.357901 282.27169 C 20.390111 282.5073 20.612893 282.4831 20.756843 282.68924 C 20.900798 282.89539 21.081083 283.294 21.276191 282.79828 C 21.307091 282.71978 21.335061 282.64743 21.35939 282.57969 C 21.38157 282.84773 21.435726 283.19322 21.569714 283.19153 C 21.573014 283.19149 21.576976 283.19161 21.580566 283.19102 C 21.809591 283.15792 21.785842 282.92828 21.986226 282.78019 C 22.186609 282.63209 22.574029 282.44658 22.092162 282.24586 C 21.981643 282.19986 21.882711 282.16031 21.794506 282.12958 C 22.11347 282.11308 22.723219 282.05497 22.694193 281.84846 C 22.654973 281.56954 22.38323 281.59848 22.207918 281.35444 C 22.032599 281.11039 21.813019 280.63787 21.575398 281.22473 C 21.537768 281.31763 21.504246 281.40394 21.474629 281.48414 C 21.447619 281.16682 21.380979 280.75763 21.217797 280.75964 z " />
  </g>
</svg>
