<?xml version="1.0" encoding="UTF-8" standalone="no"?>
<!-- Created with Inkscape (http://www.inkscape.org/) -->

<svg
   width="160.67793"
   height="165.765"
   viewBox="0 0 42.512703 43.858656"
   version="1.1"
   id="svg1"
   inkscape:version="1.3.2 (091e20ef0f, 2023-11-25)"
   sodipodi:docname="pasShut.svg"
   xmlns:inkscape="http://www.inkscape.org/namespaces/inkscape"
   xmlns:sodipodi="http://sodipodi.sourceforge.net/DTD/sodipodi-0.dtd"
   xmlns="http://www.w3.org/2000/svg"
   xmlns:svg="http://www.w3.org/2000/svg">
  <sodipodi:namedview
     id="namedview1"
     pagecolor="#505050"
     bordercolor="#eeeeee"
     borderopacity="1"
     inkscape:showpageshadow="0"
     inkscape:pageopacity="0"
     inkscape:pagecheckerboard="0"
     inkscape:deskcolor="#d1d1d1"
     inkscape:document-units="px"
     inkscape:zoom="2.7438272"
     inkscape:cx="35.169854"
     inkscape:cy="89.291338"
     inkscape:window-width="1920"
     inkscape:window-height="1048"
     inkscape:window-x="0"
     inkscape:window-y="0"
     inkscape:window-maximized="1"
     inkscape:current-layer="layer1"
     showgrid="false" />
  <defs
     id="defs1" />
  <g
     inkscape:label="Calque 1"
     inkscape:groupmode="layer"
     id="layer1"
     transform="translate(-8.9622144,-240.51817)">
    <path
       id="path5"
       style="fill:#cccccc;stroke:none;stroke-width:1.21812;stroke-linecap:round;stroke-linejoin:round;paint-order:fill markers stroke"
       d="m 42.800459,241.22614 c 0,0 0.6624,0.33562 1.09554,1.37097 -0.09275,-1.27035 -1.09554,-1.37097 -1.09554,-1.37097 z m -3.241146,0.90227 c 0,0 4.432057,1.76481 5.438945,3.38377 -0.70908,-2.68829 -5.438945,-3.38377 -5.438945,-3.38377 z m 0.480591,1.81539 c 0,0 2.801212,0.87322 3.386357,1.82056 -0.507131,-1.26083 -3.386357,-1.82056 -3.386357,-1.82056 z m -17.501774,2.61948 c -0.916859,0 -1.666224,1.21591 -0.853695,1.38596 0.812529,0.17005 1.115327,1.05139 1.651579,0.22634 0.536251,-0.82506 0.118974,-1.6123 -0.797884,-1.6123 z m -4.010608,0.61805 c -0.308193,-0.004 -0.61648,0.2099 -0.973584,0.8139 -1.14273,1.93282 -0.253632,3.77703 1.700155,3.77703 1.953788,0 3.549958,-2.84794 1.818493,-3.24631 -1.190382,-0.27387 -1.867041,-1.33583 -2.545064,-1.34462 z m -8.490955,9.58391 c -1.22863,2.62127 1.252844,4.73135 1.852601,5.1909 l 0.35605,0.87385 0.188619,-0.18914 -0.310058,-0.66301 c 1.762426,-1.29082 0.141952,-3.25178 -1.061434,-4.36407 l -5.17e-4,-5.2e-4 c -0.557495,-0.51541 -1.025261,-0.84801 -1.025261,-0.84801 z m 36.948133,0.66249 c -0.664854,-0.007 -1.336501,0.42573 -1.934249,1.59112 -2.125329,4.14365 -1.245966,3.45449 2.297017,3.22151 3.542984,-0.23299 3.651252,0.12897 3.268018,-1.0573 -0.275455,-0.85273 -1.931719,-3.7383 -3.630786,-3.75533 z m 0.259932,0.58188 c 0.374792,-0.0132 0.731982,0.1659 1.054716,0.44648 l -0.575159,0.93276 0.726571,-0.79168 c 0.0198,0.0198 0.03942,0.04 0.05891,0.0605 l -0.170532,0.53847 0.293522,-0.40256 c 0.01917,0.0223 0.03855,0.0438 0.05736,0.0667 l -0.07855,0.3266 0.146244,-0.2403 c 0.594308,0.76123 0.991866,1.78033 1.018543,2.24018 0.04697,0.80959 -0.296136,0.68313 -2.264978,0.71778 -3.222415,0.20532 -3.834719,1.20113 -1.901693,-2.45049 0.543665,-1.02704 1.106032,-1.42569 1.635042,-1.44436 z m 2.115117,4.65553 c -0.330488,-0.003 -0.664568,0.21135 -0.961699,0.79065 -1.056467,2.05973 -0.61911,1.71726 1.142049,1.60145 1.76116,-0.11576 1.814689,0.0641 1.624191,-0.52555 -0.136923,-0.42387 -0.959962,-1.85808 -1.804541,-1.86655 z m 0.0041,0.47232 c 0.226815,-0.01 0.470049,0.14759 0.704866,0.59118 0.79096,1.49419 0.540309,1.08653 -0.778247,1.00252 -0.805612,-0.0142 -0.945776,0.0377 -0.926558,-0.29352 0.01831,-0.31561 0.462742,-1.27684 0.999939,-1.30018 z M 43.58129,277.9934 c 0,0 -0.876532,0.26101 -1.748731,1.61851 -0.502011,-0.18492 -0.888834,-0.26304 -0.888834,-0.26304 0,0 0.06361,0.32553 0.594279,0.76792 -0.312563,0.58782 -0.611568,1.33188 -0.854212,2.27531 0.660106,-0.47907 1.198441,-1.11983 1.625224,-1.7632 0.416988,0.22679 0.960765,0.46261 1.668115,0.68781 -0.224158,-0.57959 -0.740637,-1.00668 -1.284676,-1.31258 0.605929,-1.07591 0.888835,-2.01073 0.888835,-2.01073 z m -22.363493,2.76624 c -0.0042,5e-5 -0.0085,4.5e-4 -0.01292,0.001 -0.278921,0.0392 -0.249465,0.31097 -0.49351,0.48628 -0.244044,0.17532 -0.717081,0.39438 -0.130225,0.632 0.163917,0.0664 0.308844,0.12206 0.432015,0.1602 -0.271869,0.0196 -0.676755,0.0752 -0.655257,0.23254 0.03221,0.23561 0.254992,0.21141 0.398942,0.41755 0.143955,0.20615 0.32424,0.60476 0.519348,0.10904 0.0309,-0.0785 0.05887,-0.15085 0.0832,-0.21859 0.02218,0.26804 0.07634,0.61353 0.210324,0.61184 0.0033,-4e-5 0.0073,8e-5 0.01085,-5.1e-4 0.229025,-0.0331 0.205276,-0.26274 0.40566,-0.41083 0.200383,-0.1481 0.587803,-0.33361 0.105936,-0.53433 -0.110519,-0.046 -0.209451,-0.0856 -0.297656,-0.11628 0.318964,-0.0165 0.928713,-0.0746 0.899687,-0.28112 -0.03922,-0.27892 -0.310963,-0.24998 -0.486275,-0.49402 -0.175319,-0.24405 -0.394899,-0.71657 -0.63252,-0.12971 -0.03763,0.0929 -0.07115,0.17921 -0.100769,0.25941 -0.02701,-0.31732 -0.09365,-0.72651 -0.256832,-0.7245 z"
       sodipodi:nodetypes="cccccccccssssscscscccccccccccccccccccccccsccccsccccscsccccccccccscccccsccscccccsccs" />
  </g>
</svg>
