<?xml version="1.0" encoding="UTF-8" standalone="no"?>
<!-- Created with Inkscape (http://www.inkscape.org/) -->

<svg
   width="160.67793"
   height="165.765"
   viewBox="0 0 42.512703 43.858656"
   version="1.1"
   id="svg1"
   inkscape:version="1.3.2 (091e20ef0f, 2023-11-25)"
   sodipodi:docname="piouShut.svg"
   xmlns:inkscape="http://www.inkscape.org/namespaces/inkscape"
   xmlns:sodipodi="http://sodipodi.sourceforge.net/DTD/sodipodi-0.dtd"
   xmlns="http://www.w3.org/2000/svg"
   xmlns:svg="http://www.w3.org/2000/svg">
  <sodipodi:namedview
     id="namedview1"
     pagecolor="#505050"
     bordercolor="#eeeeee"
     borderopacity="1"
     inkscape:showpageshadow="0"
     inkscape:pageopacity="0"
     inkscape:pagecheckerboard="0"
     inkscape:deskcolor="#d1d1d1"
     inkscape:document-units="px"
     inkscape:zoom="1.9401788"
     inkscape:cx="-26.543945"
     inkscape:cy="-30.409568"
     inkscape:window-width="1920"
     inkscape:window-height="1048"
     inkscape:window-x="0"
     inkscape:window-y="0"
     inkscape:window-maximized="1"
     inkscape:current-layer="layer1"
     showgrid="false" />
  <defs
     id="defs1" />
  <g
     inkscape:label="Calque 1"
     inkscape:groupmode="layer"
     id="layer1"
     transform="translate(-8.9622144,-240.51817)">
    <path
       style="opacity:1;fill:#cccccc;stroke:none;stroke-width:0.121947;stroke-linecap:round;stroke-linejoin:round;paint-order:fill markers stroke"
       d="m 25.21512,269.34791 -12.966168,11.63812 14.697607,-8.57314 -2.515214,0.26928 c 0,0 -0.543188,0.0893 -0.690721,-0.0204 -0.190895,-0.14207 0.0018,-0.63726 0.0018,-0.63726 z"
       id="path126"
       sodipodi:nodetypes="ccccacc" />
    <path
       style="opacity:1;fill:#cccccc;stroke:none;stroke-width:0.0868285;stroke-linecap:round;stroke-linejoin:round;paint-order:fill markers stroke"
       d="m 35.082862,274.47772 c -2.424198,0.0858 -4.639672,-0.178 -4.639672,-0.178 0,0 2.354007,1.39161 3.85346,1.51852 z"
       id="path127" />
    <path
       style="opacity:1;fill:#cccccc;stroke:none;stroke-width:0.0712323;stroke-linecap:round;stroke-linejoin:round;paint-order:fill markers stroke"
       d="m 46.660938,251.0886 c 1.988683,-2.88074 -0.375683,-2.99412 -2.003884,-2.53454 -1.628201,0.45959 -5.036833,5.31783 -12.658587,6.17486 -7.621753,0.85701 -5.697282,10.57657 -5.697282,10.57657 0,0 -2.308995,-9.43755 5.495142,-11.55101 4.860436,-1.31626 9.671509,-4.54324 12.07297,-7.01682 1.454435,-1.49811 1.133867,-3.02949 1.954019,-2.80706 2.174327,0.58968 3.604959,4.48309 0.837622,7.158 z"
       id="path128"
       sodipodi:nodetypes="csscsssc" />
    <path
       style="opacity:1;fill:#cccccc;stroke:none;stroke-width:0.0537474;stroke-linecap:round;stroke-linejoin:round;paint-order:fill markers stroke"
       d="m 40.622039,260.96942 c 0.752481,-0.8622 0.683126,-1.575 -0.296443,-1.75012 -0.979568,-0.17513 -5.599702,2.41867 -6.677089,3.42736 -1.077386,1.00868 -0.955896,0.86755 -0.657984,1.13332 0.297914,0.26577 0.177534,-0.24184 0.87027,-0.64786 0.692737,-0.40601 2.174759,-1.38994 3.407818,-1.5233 1.233057,-0.13337 2.60095,0.22279 3.353428,-0.6394 z"
       id="path129"
       sodipodi:nodetypes="zzzzzzz" />
  </g>
</svg>
