<?xml version="1.0" encoding="UTF-8" standalone="no"?>
<!-- Created with Inkscape (http://www.inkscape.org/) -->

<svg
   width="160.67793"
   height="165.765"
   viewBox="0 0 42.512703 43.858656"
   version="1.1"
   id="svg1"
   inkscape:version="1.3.2 (091e20ef0f, 2023-11-25)"
   sodipodi:docname="piouOpen.svg"
   xmlns:inkscape="http://www.inkscape.org/namespaces/inkscape"
   xmlns:sodipodi="http://sodipodi.sourceforge.net/DTD/sodipodi-0.dtd"
   xmlns="http://www.w3.org/2000/svg"
   xmlns:svg="http://www.w3.org/2000/svg">
  <sodipodi:namedview
     id="namedview1"
     pagecolor="#505050"
     bordercolor="#eeeeee"
     borderopacity="1"
     inkscape:showpageshadow="0"
     inkscape:pageopacity="0"
     inkscape:pagecheckerboard="0"
     inkscape:deskcolor="#d1d1d1"
     inkscape:document-units="px"
     inkscape:zoom="2.7438272"
     inkscape:cx="59.952755"
     inkscape:cy="104.59842"
     inkscape:window-width="1920"
     inkscape:window-height="1048"
     inkscape:window-x="0"
     inkscape:window-y="0"
     inkscape:window-maximized="1"
     inkscape:current-layer="layer1"
     showgrid="false" />
  <defs
     id="defs1" />
  <g
     inkscape:label="Calque 1"
     inkscape:groupmode="layer"
     id="layer1"
     transform="translate(-8.9622144,-240.51817)">
    <path
       style="fill:#afdde9;stroke:none;stroke-width:1.72743;stroke-linecap:round;stroke-linejoin:round;paint-order:fill markers stroke"
       d="m 47.306886,250.80461 c 2.436116,-1.31167 1.092587,-3.84603 -1.702609,-3.91883 -2.795196,-0.0727 -3.173253,5.01213 -6.209346,6.7901 -3.036095,1.77798 -6.944698,1.10358 -9.350821,0.91222 -2.406121,-0.19135 -6.562521,4.19504 -6.562521,4.19504 0,0 2.79562,-5.15308 5.954991,-5.22857 3.159371,-0.0756 8.397906,-0.46201 10.069988,-2.64619 1.672081,-2.18418 3.855651,-7.22439 7.469036,-5.99504 3.613383,1.22932 4.06066,5.38321 0.331282,5.89127 z"
       id="path1" />
    <path
       style="fill:#afdde9;stroke:none;stroke-width:1.72743;stroke-linecap:round;stroke-linejoin:round;paint-order:fill markers stroke"
       d="m 48.921265,252.61104 c 2.808738,-1.03937 0.340953,-2.80202 0.340953,-2.80202 l 0.206623,-1.82446 c 0,0 4.25704,3.29969 -0.547576,4.62648 z"
       id="path2" />
    <path
       style="fill:#afdde9;stroke:none;stroke-width:1.52697;stroke-linecap:round;stroke-linejoin:round;paint-order:fill markers stroke"
       d="m 23.337327,262.44152 -13.9491312,-9.42138 5.5019282,10.2019 -4.469532,4.91142 9.761089,0.23988 -6.71587,-1.63274 4.124145,-3.27548 -3.732586,-5.48809 z"
       id="path3"
       sodipodi:nodetypes="ccccccccc" />
    <path
       id="path4"
       style="fill:#afdde9;stroke:none;stroke-width:1.72743;stroke-linecap:round;stroke-linejoin:round;paint-order:fill markers stroke"
       d="m 33.280889,258.65397 a 4.086879,4.086879 0 0 0 -4.086905,4.0869 4.086879,4.086879 0 0 0 4.086905,4.08692 4.086879,4.086879 0 0 0 4.086907,-4.08692 4.086879,4.086879 0 0 0 -4.086907,-4.0869 z m -0.287904,0.78049 a 3.2255341,3.1377583 0 0 1 3.225439,3.13772 3.2255341,3.1377583 0 0 1 -3.225439,3.13773 3.2255341,3.1377583 0 0 1 -3.225439,-3.13773 3.2255341,3.1377583 0 0 1 3.225439,-3.13772 z" />
    <path
       style="fill:#afdde9;stroke:none;stroke-width:1.75781;stroke-linecap:round;stroke-linejoin:round;paint-order:fill markers stroke"
       d="m 26.319872,279.07845 c -1.26777,-1.1707 -4.424907,-9.33212 -4.424907,-9.33212 0,0 2.903764,4.21665 4.352275,5.1338 0,0 -0.942315,1.59427 -1.683747,0.003 0,0 0.952782,3.01946 1.756383,4.19499 z"
       id="path5"
       inkscape:transform-center-x="1.7206218"
       inkscape:transform-center-y="-0.47474945" />
  </g>
</svg>
