<?xml version="1.0" encoding="UTF-8" standalone="no"?>
<!-- Created with Inkscape (http://www.inkscape.org/) -->

<svg
   width="128"
   height="60"
   viewBox="0 0 33.866666 15.875"
   version="1.1"
   id="svg1"
   inkscape:version="1.3.2 (091e20ef0f, 2023-11-25)"
   sodipodi:docname="rec.svg"
   xmlns:inkscape="http://www.inkscape.org/namespaces/inkscape"
   xmlns:sodipodi="http://sodipodi.sourceforge.net/DTD/sodipodi-0.dtd"
   xmlns="http://www.w3.org/2000/svg"
   xmlns:svg="http://www.w3.org/2000/svg">
  <sodipodi:namedview
     id="namedview1"
     pagecolor="#505050"
     bordercolor="#eeeeee"
     borderopacity="1"
     inkscape:showpageshadow="0"
     inkscape:pageopacity="0"
     inkscape:pagecheckerboard="0"
     inkscape:deskcolor="#d1d1d1"
     inkscape:document-units="px"
     inkscape:zoom="5.4876543"
     inkscape:cx="47.834646"
     inkscape:cy="22.778403"
     inkscape:window-width="1920"
     inkscape:window-height="1048"
     inkscape:window-x="0"
     inkscape:window-y="0"
     inkscape:window-maximized="1"
     inkscape:current-layer="layer1"
     showgrid="false" />
  <defs
     id="defs1" />
  <g
     inkscape:label="Calque 1"
     inkscape:groupmode="layer"
     id="layer1"
     transform="translate(0,-272.12915)">
    <path
       id="path1"
       style="fill:#000000;stroke-width:2.32568;paint-order:fill markers stroke"
       d="M 7.9726398,272.12915 A 7.9726697,7.9374217 0 0 0 0,280.06665 a 7.9726697,7.9374217 0 0 0 7.9726398,7.9375 7.9726697,7.9374217 0 0 0 7.9726402,-7.9375 7.9726697,7.9374217 0 0 0 -7.9726402,-7.9375 z m 4.1382482,0 c 0.543757,0.33702 1.051148,0.7288 1.514637,1.16892 h 6.6151 c 0.463489,-0.44012 0.971397,-0.8319 1.515153,-1.16892 z m 13.783138,0 a 7.9726697,7.9374217 0 0 0 -7.97264,7.9375 7.9726697,7.9374217 0 0 0 7.97264,7.9375 7.9726697,7.9374217 0 0 0 7.97264,-7.9375 7.9726697,7.9374217 0 0 0 -7.97264,-7.9375 z m -17.9213862,1.16892 a 6.7984696,6.7684129 0 0 1 6.7985512,6.76858 6.7984696,6.7684129 0 0 1 -6.7985512,6.76807 6.7984696,6.7684129 0 0 1 -6.7985513,-6.76807 6.7984696,6.7684129 0 0 1 6.7985513,-6.76858 z m 17.9213862,0 a 6.7984696,6.7684129 0 0 1 6.798551,6.76858 6.7984696,6.7684129 0 0 1 -6.798551,6.76807 6.7984696,6.7684129 0 0 1 -6.798551,-6.76807 6.7984696,6.7684129 0 0 1 6.798551,-6.76858 z m -17.9213862,0.44494 a 6.3516131,6.3235321 0 0 0 -3.1760334,0.84749 l 1.8970417,3.27112 a 2.5630936,2.551762 0 0 1 1.2789917,-0.34675 2.5630936,2.551762 0 0 1 1.2810587,0.3421 l 1.8944585,-3.26647 a 6.3516131,6.3235321 0 0 0 -3.1755172,-0.84749 z m 17.9213862,0 a 6.3516131,6.3235321 0 0 0 -3.175517,0.84749 l 1.897042,3.27112 a 2.5630936,2.551762 0 0 1 1.278475,-0.34675 2.5630936,2.551762 0 0 1 1.281059,0.3421 l 1.894975,-3.26647 a 6.3516131,6.3235321 0 0 0 -3.176034,-0.84749 z m -17.9213862,4.57026 a 1.7609445,1.7531592 0 0 0 -1.7611328,1.75338 1.7609445,1.7531592 0 0 0 1.7611328,1.75287 1.7609445,1.7531592 0 0 0 1.7611328,-1.75287 1.7609445,1.7531592 0 0 0 -1.7611328,-1.75338 z m 17.9213862,0 a 1.7609445,1.7531592 0 0 0 -1.760616,1.75338 1.7609445,1.7531592 0 0 0 1.760616,1.75287 1.7609445,1.7531592 0 0 0 1.761133,-1.75287 1.7609445,1.7531592 0 0 0 -1.761133,-1.75338 z m -24.2729364,1.75338 a 6.3516131,6.3235321 0 0 0 3.1755168,5.47615 l 1.8970417,-3.27163 a 2.5630936,2.551762 0 0 1 -1.2841593,-2.20452 z m 8.9147014,0 a 2.5630936,2.551762 0 0 1 -1.2846763,2.20452 l 1.8970423,3.27163 a 6.3516131,6.3235321 0 0 0 3.176033,-5.47615 z m 9.006685,0 a 6.3516131,6.3235321 0 0 0 3.176033,5.47615 l 1.897042,-3.27163 a 2.5630936,2.551762 0 0 1 -1.284676,-2.20452 z m 8.914701,0 a 2.5630936,2.551762 0 0 1 -1.284159,2.20452 l 1.897042,3.27163 a 6.3516131,6.3235321 0 0 0 3.175516,-5.47615 z" />
  </g>
</svg>
