<?xml version="1.0" encoding="UTF-8" standalone="no"?>
<!-- Created with Inkscape (http://www.inkscape.org/) -->

<svg
   width="266.03284"
   height="119.96346"
   viewBox="0 0 70.387855 31.740333"
   version="1.1"
   id="svg1"
   inkscape:version="1.3.2 (091e20ef0f, 2023-11-25)"
   sodipodi:docname="routeShut.svg"
   xmlns:inkscape="http://www.inkscape.org/namespaces/inkscape"
   xmlns:sodipodi="http://sodipodi.sourceforge.net/DTD/sodipodi-0.dtd"
   xmlns="http://www.w3.org/2000/svg"
   xmlns:svg="http://www.w3.org/2000/svg">
  <sodipodi:namedview
     id="namedview1"
     pagecolor="#505050"
     bordercolor="#eeeeee"
     borderopacity="1"
     inkscape:showpageshadow="0"
     inkscape:pageopacity="0"
     inkscape:pagecheckerboard="0"
     inkscape:deskcolor="#d1d1d1"
     inkscape:document-units="px"
     inkscape:zoom="1.9401788"
     inkscape:cx="133.23514"
     inkscape:cy="-39.687064"
     inkscape:window-width="1920"
     inkscape:window-height="1048"
     inkscape:window-x="0"
     inkscape:window-y="0"
     inkscape:window-maximized="1"
     inkscape:current-layer="layer1"
     showgrid="false" />
  <defs
     id="defs1" />
  <g
     inkscape:label="Calque 1"
     inkscape:groupmode="layer"
     id="layer1"
     transform="translate(7.2269974,-244.68677)">
    <path
       style="fill:#cccccc;stroke:none;stroke-width:1.55786;stroke-linecap:round;stroke-linejoin:round;paint-order:fill markers stroke"
       d="m -3.9035383,270.02319 -0.8756473,0.49281 66.3060136,0.61588 -1.455303,-0.9095 z"
       id="path24"
       sodipodi:nodetypes="ccccc" />
    <path
       style="fill:#cccccc;stroke:none;stroke-width:1.55786;stroke-linecap:round;stroke-linejoin:round;paint-order:fill markers stroke"
       d="m 16.063637,259.901 -0.66548,0.31907 33.13706,0.82183 -0.515994,-0.37533 z"
       id="path25"
       sodipodi:nodetypes="ccccc" />
    <path
       id="path26"
       style="fill:#cccccc;stroke:none;stroke-width:1.21713;stroke-linecap:round;stroke-linejoin:round;paint-order:fill markers stroke"
       d="m 50.830472,264.07926 -3.287858,0.005 1.059566,0.9135 5.11363,0.0149 z m -4.067184,0.007 -5.457372,0.009 0.778799,0.88418 5.916573,0.0174 z m -6.251391,0.0103 -5.173984,0.009 0.09971,0.85517 5.9024,0.0174 z m -5.757033,0.01 -4.350049,0.008 -0.638679,0.83035 4.946745,0.0146 z m -5.225412,0.009 -5.978497,0.01 -1.365524,0.79715 6.38574,0.0189 z m -6.81345,0.0111 -4.58306,0.008 -1.826821,0.77112 4.921553,0.0146 z m -5.677789,0.01 -6.423525,0.0106 -1.9664182,0.73642 6.1978632,0.0182 z m -7.4164431,0.0119 -1.2684365,0.002 -2.1789606,0.72566 1.2390476,0.004 z" />
  </g>
</svg>
