<?xml version="1.0" encoding="UTF-8" standalone="no"?>
<!-- Created with Inkscape (http://www.inkscape.org/) -->

<svg
   width="266.03284"
   height="119.96346"
   viewBox="0 0 70.387855 31.740333"
   version="1.1"
   id="svg1"
   inkscape:version="1.3.2 (091e20ef0f, 2023-11-25)"
   sodipodi:docname="routeOpen.svg"
   xmlns:inkscape="http://www.inkscape.org/namespaces/inkscape"
   xmlns:sodipodi="http://sodipodi.sourceforge.net/DTD/sodipodi-0.dtd"
   xmlns="http://www.w3.org/2000/svg"
   xmlns:svg="http://www.w3.org/2000/svg">
  <sodipodi:namedview
     id="namedview1"
     pagecolor="#505050"
     bordercolor="#eeeeee"
     borderopacity="1"
     inkscape:showpageshadow="0"
     inkscape:pageopacity="0"
     inkscape:pagecheckerboard="0"
     inkscape:deskcolor="#d1d1d1"
     inkscape:document-units="px"
     inkscape:zoom="1.9401788"
     inkscape:cx="45.614353"
     inkscape:cy="57.726638"
     inkscape:window-width="1920"
     inkscape:window-height="1048"
     inkscape:window-x="0"
     inkscape:window-y="0"
     inkscape:window-maximized="1"
     inkscape:current-layer="layer1"
     showgrid="false" />
  <defs
     id="defs1" />
  <g
     inkscape:label="Calque 1"
     inkscape:groupmode="layer"
     id="layer1"
     transform="translate(7.2269974,-244.68677)">
    <path
       style="fill:#afdde9;stroke:none;stroke-width:1.55786;stroke-linecap:round;stroke-linejoin:round;paint-order:fill markers stroke"
       d="m -3.9035383,270.02319 -0.8756473,0.49281 66.3060136,0.61588 -1.455303,-0.9095 z"
       id="path24"
       sodipodi:nodetypes="ccccc" />
    <path
       id="path25"
       style="fill:#afdde9;stroke:none;stroke-width:1.55786;stroke-linecap:round;stroke-linejoin:round;paint-order:fill markers stroke"
       d="m 16.063571,259.90083 -0.665593,0.31936 1.100708,0.0274 c 0.03639,-0.11829 0.06535,-0.22799 0.09922,-0.33383 z m 0.37052,4.23695 -5.819283,0.009 -1.9662886,0.73639 6.1975546,0.0186 1.678967,-0.58601 c -0.03193,-0.0591 -0.06304,-0.11811 -0.09095,-0.17828 z m -6.8125044,0.0109 -1.2681396,0.002 -2.1791952,0.72554 1.2392009,0.004 z m 41.8315554,0.13229 c -0.08704,0.27995 -0.232007,0.52295 -0.412378,0.72399 l 2.675289,0.008 z m -34.67747,0.42633 -0.469739,0.19844 0.637687,0.002 c -0.05916,-0.0651 -0.11577,-0.1314 -0.167948,-0.20051 z"
       sodipodi:nodetypes="cccccccccccccccccccccccc" />
    <path
       id="path33"
       style="fill:#afdde9;stroke:none;stroke-width:0.734491;stroke-linecap:round;stroke-linejoin:round;paint-order:fill markers stroke"
       d="m 30.445335,247.33281 c -9.391391,0.18327 -9.184016,7.53404 -10.159026,9.67224 -1.006463,2.20715 -1.625823,1.12238 -2.085841,2.80191 -0.460018,1.67953 -1.756507,4.91211 1.989486,4.62811 0,0 0.719701,-2.44783 3.122783,-2.37036 2.403082,0.0774 2.443044,2.59247 2.443044,2.59247 0,0 0.01293,0.65894 0.969041,0.65894 0.956117,0 -0.959839,-1.0309 4.35889,-1.12038 5.318727,-0.0894 7.228481,-0.61282 7.895062,0.23167 0.666581,0.8445 0.828187,0.58699 1.263602,0.23479 0.435416,-0.35219 0.874245,-2.88859 2.914534,-3.12349 2.040288,-0.2349 1.810276,2.67119 2.420809,3.18447 0.610531,0.51326 0.309326,-0.55614 0.995818,-0.55614 0.686492,0 3.211337,0.6217 3.456795,-0.34356 0.245457,-0.96528 2.121104,-4.54778 -0.558758,-5.90535 -2.679862,-1.35754 -8.126441,0.1102 -9.523042,-2.58147 -1.396599,-2.69173 1.781366,-7.69739 -8.563804,-7.99883 -0.323285,-0.01 -0.636445,-0.0111 -0.939393,-0.005 z m 0.405501,1.23754 c 1.223182,-0.01 2.492398,0.0709 3.744661,0.20036 5.009054,0.51811 3.925871,7.02196 3.546693,9.01353 -0.379177,1.99159 10.731638,0.41156 11.691609,1.22535 0.95997,0.81378 -0.258641,4.46397 -1.805864,4.50474 -1.547224,0.0408 -1.967998,-1.11109 -2.313216,-2.0079 -0.345218,-0.89682 -2.123131,-0.72108 -3.488356,-0.49037 -1.365224,0.23069 -2.133436,2.30291 -3.134976,2.19366 -1.001543,-0.10922 -5.28405,-0.52217 -7.414966,-0.69121 -2.130917,-0.16905 -4.330097,1.12244 -4.901629,0.992 -0.571532,-0.13047 -0.957687,-1.77015 -3.208378,-2.17862 -2.25069,-0.40847 -3.767614,2.34932 -3.767614,2.34932 -2.746795,0.4171 -0.920944,-3.91258 0.124088,-4.18555 1.045033,-0.27296 1.360193,-3.43383 2.871019,-7.20934 1.133119,-2.83164 4.387382,-3.68496 8.056929,-3.71597 z m 14.456947,16.48086 c -2.565424,2.71186 -4.791168,0.28309 -4.791168,0.28309 0,0 2.090983,4.79036 4.791168,-0.28309 z m -25.040123,0.37537 c 0,0 1.901091,5.02943 5.590931,0.33234 -3.274438,2.367 -5.590931,-0.33234 -5.590931,-0.33234 z" />
    <g
       id="path35">
      <path
         style="color:#000000;fill:#afdde9;stroke-linecap:round;stroke-linejoin:round;-inkscape-stroke:none;paint-order:fill markers stroke"
         d="m 30.445335,247.33281 c -9.391391,0.18327 -9.184016,7.53404 -10.159026,9.67224 -1.006463,2.20715 -1.625823,1.12238 -2.085841,2.80191 -0.460018,1.67953 -1.756507,4.91211 1.989486,4.62811 0,0 0.719701,-2.44783 3.122783,-2.37036 2.403082,0.0774 2.443044,2.59247 2.443044,2.59247 0,0 0.01293,0.65894 0.969041,0.65894 0.956117,0 -0.959839,-1.0309 4.35889,-1.12038 5.318727,-0.0894 7.228481,-0.61282 7.895062,0.23167 0.666581,0.8445 0.828187,0.58699 1.263602,0.23479 0.435416,-0.35219 0.874245,-2.88859 2.914534,-3.12349 2.040288,-0.2349 1.810276,2.67119 2.420809,3.18447 0.610531,0.51326 0.309326,-0.55614 0.995818,-0.55614 0.686492,0 3.211337,0.6217 3.456795,-0.34356 0.245457,-0.96528 2.121104,-4.54778 -0.558758,-5.90535 -2.679862,-1.35754 -8.126441,0.1102 -9.523042,-2.58147 -1.396599,-2.69173 1.781366,-7.69739 -8.563804,-7.99883 -0.323285,-0.01 -0.636445,-0.0111 -0.939393,-0.005 z m 0.405501,1.23754 c 1.223182,-0.01 2.492398,0.0709 3.744661,0.20036 5.009054,0.51811 3.925871,7.02196 3.546693,9.01353 -0.379177,1.99159 10.731638,0.41156 11.691609,1.22535 0.95997,0.81378 -0.258641,4.46397 -1.805864,4.50474 -1.547224,0.0408 -1.967998,-1.11109 -2.313216,-2.0079 -0.345218,-0.89682 -2.123131,-0.72108 -3.488356,-0.49037 -1.365224,0.23069 -2.133436,2.30291 -3.134976,2.19366 -1.001543,-0.10922 -5.28405,-0.52217 -7.414966,-0.69121 -2.130917,-0.16905 -4.330097,1.12244 -4.901629,0.992 -0.571532,-0.13047 -0.957687,-1.77015 -3.208378,-2.17862 -2.25069,-0.40847 -3.767614,2.34932 -3.767614,2.34932 -2.746795,0.4171 -0.920944,-3.91258 0.124088,-4.18555 1.045033,-0.27296 1.360193,-3.43383 2.871019,-7.20934 1.133119,-2.83164 4.387382,-3.68496 8.056929,-3.71597 z m 14.456947,16.48086 c -2.565424,2.71186 -4.791168,0.28309 -4.791168,0.28309 0,0 2.090983,4.79036 4.791168,-0.28309 z m -25.040123,0.37537 c 0,0 1.901091,5.02943 5.590931,0.33234 -3.274438,2.367 -5.590931,-0.33234 -5.590931,-0.33234 z"
         id="path36" />
    </g>
    <path
       style="fill:#afdde9;stroke:none;stroke-width:3;stroke-linecap:round;stroke-linejoin:round;paint-order:fill markers stroke"
       d="m 37.663406,256.9325 c -0.117805,0.45906 -5.126916,1.55521 -6.853655,1.55521 -1.726737,0 -0.114612,-6.93441 1.089861,-7.58933 1.204473,-0.65491 5.031475,0.40281 5.031475,0.40281 0,0 -4.46259,-0.70572 -4.947967,-0.013 -0.485377,0.69272 -2.384926,6.50669 -1.133463,6.52712 1.251463,0.0204 5.455043,-0.40906 6.813749,-0.88281 z"
       id="path37" />
    <path
       style="fill:#afdde9;stroke:none;stroke-width:3;stroke-linecap:round;stroke-linejoin:round;paint-order:fill markers stroke"
       d="m 20.93272,251.49206 -0.701691,0.8603 -8.640478,-1.13845 z"
       id="path38" />
    <path
       style="fill:#afdde9;stroke:none;stroke-width:3;stroke-linecap:round;stroke-linejoin:round;paint-order:fill markers stroke"
       d="m 19.87861,253.45436 -0.422058,0.89902 -3.854219,-0.30996 z"
       id="path39" />
  </g>
</svg>
