<?xml version="1.0" encoding="UTF-8" standalone="no"?>
<!-- Created with Inkscape (http://www.inkscape.org/) -->

<svg
   width="206.96358"
   height="76.89357"
   viewBox="0 0 54.759112 20.344757"
   version="1.1"
   id="svg1"
   inkscape:version="1.3.2 (091e20ef0f, 2023-11-25)"
   sodipodi:docname="windBG.svg"
   xmlns:inkscape="http://www.inkscape.org/namespaces/inkscape"
   xmlns:sodipodi="http://sodipodi.sourceforge.net/DTD/sodipodi-0.dtd"
   xmlns="http://www.w3.org/2000/svg"
   xmlns:svg="http://www.w3.org/2000/svg">
  <sodipodi:namedview
     id="namedview1"
     pagecolor="#505050"
     bordercolor="#eeeeee"
     borderopacity="1"
     inkscape:showpageshadow="0"
     inkscape:pageopacity="0"
     inkscape:pagecheckerboard="0"
     inkscape:deskcolor="#d1d1d1"
     inkscape:document-units="px"
     inkscape:zoom="3.8803576"
     inkscape:cx="97.542556"
     inkscape:cy="65.200176"
     inkscape:window-width="1920"
     inkscape:window-height="1048"
     inkscape:window-x="0"
     inkscape:window-y="0"
     inkscape:window-maximized="1"
     inkscape:current-layer="layer1"
     showgrid="false" />
  <defs
     id="defs1" />
  <g
     inkscape:label="Calque 1"
     inkscape:groupmode="layer"
     id="layer1"
     transform="translate(2.2607194,-264.21226)">
    <path
       style="opacity:0.15;fill:#ffffff;stroke-width:0.13229167;stroke-linecap:round;stroke-linejoin:round;paint-order:fill markers stroke;stroke:none"
       d="m 46.136301,264.71898 c -1.549717,0.17603 -4.055212,-0.31161 -10.140211,-0.49308 -6.085,-0.18147 -7.544165,1.52294 -15.805534,0.68328 -8.261369,-0.83965 -22.4512754,0.88896 -22.4512754,0.88896 0,0 15.4431714,-0.90273 19.4255164,-0.28815 3.982343,0.61457 7.718921,0.80926 11.949891,0.13566 4.23097,-0.67359 7.435129,-1.09504 10.387976,-0.86536 2.952847,0.22967 6.633637,-0.0613 6.633637,-0.0613 z"
       id="path1"
       sodipodi:nodetypes="czzczzzc" />
    <path
       style="opacity:0.15;fill:#ffffff;stroke-width:0.13229167;stroke-linecap:round;stroke-linejoin:round;paint-order:fill markers stroke;stroke:none"
       d="m 46.250587,281.22306 c -1.922503,0.21204 -3.715819,0.12478 -6.228051,-0.47547 -2.512232,-0.60026 -7.522769,0.25892 -11.456195,0.37666 -3.933427,0.11774 -10.979653,-1.42513 -10.979653,-1.42513 0,0 8.567613,2.60884 11.461435,2.2451 2.893823,-0.36374 6.663916,-0.82811 8.622206,-0.86325 1.958291,-0.0351 6.168984,0.80702 8.580258,0.14209 z"
       id="path2"
       sodipodi:nodetypes="czzczzc" />
    <path
       style="opacity:0.15;fill:#ffffff;stroke-width:0.13229167;stroke-linecap:round;stroke-linejoin:round;paint-order:fill markers stroke;stroke:none"
       d="m 51.659244,282.76636 c -2.983177,0.46689 -5.40205,0.548 -10.279998,0.0127 -4.877949,-0.53525 -10.784992,0.18154 -10.784992,0.18154 0,0 7.060629,-4e-4 11.075846,0.39939 4.015217,0.39979 7.183215,0.16366 9.989144,-0.59368 z"
       id="path3"
       sodipodi:nodetypes="czczc" />
    <path
       style="opacity:0.15;fill:#ffffff;stroke-width:0.13229167;stroke-linecap:round;stroke-linejoin:round;paint-order:fill markers stroke;stroke:none"
       d="m 47.595489,280.71674 c -1.700698,0.15242 -5.490142,0.58782 -8.695481,1.03688 -3.205335,0.44905 -9.009232,-2.48953 -13.665997,-0.74955 -4.656764,1.73997 -14.699406,-0.65773 -14.699406,-0.65773 0,0 6.800554,2.52462 10.847696,1.94363 1.980531,-0.28432 4.532641,-1.24489 7.060399,-1.36097 2.637622,-0.12112 5.237299,0.61564 6.571994,0.97489 2.613799,0.70356 3.554901,0.27809 5.782237,-0.0351 1.930978,-0.27147 3.74132,-0.47862 6.798558,-1.1521 z"
       id="path4"
       sodipodi:nodetypes="csccsscsc" />
    <path
       style="opacity:0.15;fill:#ffffff;stroke-width:0.13229167;stroke-linecap:round;stroke-linejoin:round;paint-order:fill markers stroke;stroke:none"
       d="m 48.34329,265.43865 c -2.249754,-0.19183 -4.348329,-0.1129 -7.288195,0.43014 -2.939866,0.54304 -8.803303,-0.23424 -13.40628,-0.34076 -4.602978,-0.10651 -12.848618,1.28928 -12.848618,1.28928 0,0 10.025999,-2.36015 13.41241,-2.03109 3.386411,0.32907 7.798253,0.74918 10.089886,0.78096 2.291632,0.0318 7.219073,-0.73009 10.040797,-0.12853 z"
       id="path5"
       sodipodi:nodetypes="czzczzc" />
    <path
       style="opacity:0.15;fill:#ffffff;stroke-width:0.13229167;stroke-linecap:round;stroke-linejoin:round;paint-order:fill markers stroke;stroke:none"
       d="m 3.9249483,283.06417 c 3.17777,-0.20771 6.1420047,-0.12224 10.2945647,0.46577 4.152559,0.58801 12.434664,-0.25364 18.936367,-0.36898 6.501703,-0.11533 18.148668,1.39606 18.148668,1.39606 0,0 -14.16172,-2.55562 -18.945032,-2.1993 -4.783299,0.35632 -11.015021,0.81122 -14.251953,0.84564 -3.236933,0.0344 -10.1969399,-0.79056 -14.1826147,-0.13919 z"
       id="path6"
       sodipodi:nodetypes="czzczzc" />
    <path
       style="opacity:0.15;fill:#ffffff;stroke-width:0.13229167;stroke-linecap:round;stroke-linejoin:round;paint-order:fill markers stroke;stroke:none"
       d="m 5.1790026,268.35267 c 2.0178799,-0.15124 6.5140594,-0.58326 10.3171984,-1.02882 3.803139,-0.44557 10.68947,2.47018 16.214734,0.74372 5.525254,-1.72646 17.440867,0.65262 17.440867,0.65262 0,0 -8.068866,-2.50501 -12.870806,-1.92853 -2.3499,0.28211 -5.377985,1.23522 -8.377176,1.3504 -3.129548,0.12018 -6.214062,-0.61086 -7.797687,-0.96732 -3.101272,-0.69809 -4.217896,-0.27593 -6.860632,0.0348 -2.291104,0.26937 -4.4390855,0.47491 -8.0664984,1.14315 z"
       id="path7"
       sodipodi:nodetypes="csccsscsc" />
    <path
       style="opacity:0.15;fill:#ffffff;stroke-width:0.13229167;stroke-linecap:round;stroke-linejoin:round;paint-order:fill markers stroke;stroke:none"
       d="m 26.886349,267.64599 c 1.293243,-0.13865 2.505691,-0.10707 4.214441,0.20703 1.708749,0.3141 5.072703,-0.22032 7.725442,-0.32555 2.652739,-0.10524 7.442366,0.6963 7.442366,0.6963 0,0 -5.839488,-1.38831 -7.785169,-1.15445 -1.945681,0.23387 -4.480732,0.53317 -5.801925,0.57231 -1.321194,0.0391 -4.181674,-0.39478 -5.795155,0.004 z"
       id="path8"
       sodipodi:nodetypes="czzczzc" />
    <path
       style="opacity:0.15;fill:#ffffff;stroke-width:0.13229167;stroke-linecap:round;stroke-linejoin:round;paint-order:fill markers stroke;stroke:none"
       d="m 52.159527,269.87548 c -2.251456,-0.38566 -4.077022,-0.45265 -7.758496,-0.0105 -3.681474,0.44212 -8.139623,-0.14995 -8.139623,-0.14995 0,0 5.328781,3.3e-4 8.359136,-0.32991 3.030355,-0.33023 5.421299,-0.13518 7.538983,0.49039 z"
       id="path9"
       sodipodi:nodetypes="czczc" />
    <path
       style="opacity:0.15;fill:#ffffff;stroke-width:0.13229167;stroke-linecap:round;stroke-linejoin:round;paint-order:fill markers stroke;stroke:none"
       d="m 50.973063,270.05535 c -2.337099,-0.44255 -1.524085,-1.33334 -5.205559,-0.41415 -3.681474,0.91919 -4.591634,-0.61932 -4.591634,-0.61932 0,0 0.625608,0.90395 3.655963,0.21738 3.030355,-0.68657 3.921672,-0.18415 6.14123,0.81609 z"
       id="path10"
       sodipodi:nodetypes="czczc" />
    <path
       style="opacity:0.15;fill:#ffffff;stroke-width:0.13229167;stroke-linecap:round;stroke-linejoin:round;paint-order:fill markers stroke;stroke:none"
       d="m 21.727646,266.36914 c 1.256381,-0.0657 4.055816,-0.25323 6.423745,-0.44668 2.367929,-0.19345 6.65553,1.07246 10.095697,0.3229 3.440161,-0.74957 10.859119,0.28334 10.859119,0.28334 0,0 -5.023877,-1.08759 -8.013685,-0.8373 -1.463107,0.12248 -3.348468,0.53629 -5.215839,0.5863 -1.948535,0.0522 -3.86903,-0.26522 -4.855034,-0.41998 -1.930929,-0.30308 -2.626168,-0.1198 -4.2716,0.0151 -1.426499,0.11695 -2.763886,0.20619 -5.022403,0.49631 z"
       id="path11"
       sodipodi:nodetypes="csccsscsc" />
    <path
       style="opacity:0.15;fill:#ffffff;stroke-width:0.13229167;stroke-linecap:round;stroke-linejoin:round;paint-order:fill markers stroke;stroke:none"
       d="m 51.129493,281.97595 c -0.410227,-0.32562 -0.742854,-0.38219 -1.413637,-0.009 -0.670783,0.37329 -1.48308,-0.12661 -1.48308,-0.12661 0,0 0.97093,2.8e-4 1.523076,-0.27854 0.552146,-0.27883 0.987788,-0.11414 1.373641,0.41404 z"
       id="path12"
       sodipodi:nodetypes="czczc" />
    <path
       style="opacity:0.15;fill:#ffffff;stroke-width:0.13229167;stroke-linecap:round;stroke-linejoin:round;paint-order:fill markers stroke;stroke:none"
       d="m 45.083177,281.82134 c 0.436985,0.14487 0.844607,0.0853 1.415639,-0.32483 0.571033,-0.41009 1.709932,0.17689 2.604003,0.25733 0.894071,0.0804 2.495684,-0.97364 2.495684,-0.97364 0,0 -1.947425,1.78234 -2.605195,1.53384 -0.657767,-0.24851 -1.514711,-0.56576 -1.959833,-0.58977 -0.445121,-0.024 -1.402215,0.55135 -1.950298,0.0971 z"
       id="path13"
       sodipodi:nodetypes="czzczzc" />
    <path
       style="opacity:0.15;fill:#ffffff;stroke-width:0.13229167;stroke-linecap:round;stroke-linejoin:round;paint-order:fill markers stroke;stroke:none"
       d="m 45.018895,281.35243 c 1.29744,-0.25351 0.846092,-0.76379 2.889883,-0.23724 2.043792,0.52654 2.549064,-0.35477 2.549064,-0.35477 0,0 -0.347307,0.51781 -2.029624,0.12452 -1.682317,-0.39329 -2.177125,-0.10549 -3.409323,0.46749 z"
       id="path14"
       sodipodi:nodetypes="czczc" />
    <path
       id="path56"
       style="color:#000000;fill:#000000;stroke-linecap:round;stroke-linejoin:round;-inkscape-stroke:none;paint-order:fill markers stroke;opacity:0.15"
       d="M 34.906004 264.14715 C 32.471704 264.16319 30.786408 264.48728 28.900169 264.74814 C 28.843777 264.75594 28.780217 264.76114 28.723436 264.76882 C 28.559922 264.75298 28.377855 264.73624 28.218557 264.72076 C 27.129538 264.61494 25.381104 264.783 23.499465 265.05975 C 22.523364 265.03399 21.445601 264.97061 20.197341 264.84375 C 11.922279 264.00271 -2.253688 265.73135 -2.26382 265.73258 L -2.2695044 265.73258 A 0.06615245 0.06615245 0 0 0 -2.2576188 265.86332 L -2.2519344 265.86332 L -2.24625 265.86332 C -2.235287 265.86268 1.6095718 265.63884 5.9610009 265.49022 C 10.318631 265.3414 15.18051 265.27146 17.154116 265.576 C 17.803985 265.67629 18.446574 265.76047 19.086815 265.83645 C 16.691014 266.30976 14.791862 266.75146 14.788886 266.75216 L 14.785268 266.75216 A 0.066650191 0.066650191 0 0 0 14.81059 266.8829 C 14.81059 266.8829 17.701321 266.39859 21.00246 266.02197 C 21.731645 266.07667 22.461754 266.1151 23.195608 266.12739 C 22.746757 266.17693 22.264501 266.23324 21.72438 266.30257 C 21.72178 266.30291 21.721395 266.30224 21.718695 266.30257 A 0.06615245 0.06615245 0 0 0 21.661851 266.36923 A 0.06615245 0.06615245 0 0 0 21.730581 266.43538 C 21.731681 266.43532 21.735065 266.43544 21.736265 266.43538 C 21.738965 266.43524 21.747508 266.43331 21.750218 266.43331 C 23.013546 266.36701 25.79456 266.1813 28.156028 265.98838 C 29.325091 265.89288 30.988881 266.15853 32.78882 266.35735 C 34.588761 266.55618 36.528638 266.68799 38.261871 266.31032 C 39.966109 265.93898 42.680386 266.00748 44.962754 266.17183 C 47.237544 266.33565 49.071704 266.59025 49.08395 266.59196 C 49.083974 266.59196 49.091701 266.59351 49.091701 266.59351 L 49.097902 266.59351 A 0.06615245 0.06615245 0 0 0 49.121157 266.46484 C 49.121157 266.46484 49.115572 266.46277 49.115472 266.46277 C 49.115472 266.46277 49.103617 266.4607 49.103587 266.4607 C 49.079113 266.45511 45.894493 265.76609 43.083282 265.61683 C 45.02518 265.3714 46.629026 265.3615 48.316555 265.50417 C 48.321055 265.50455 48.32542 265.50378 48.32999 265.50417 C 48.33259 265.50439 48.335142 265.50394 48.337742 265.50417 A 0.06635946 0.06635946 0 0 0 48.357379 265.37291 C 48.355279 265.37245 48.351727 265.37336 48.349628 265.37291 C 46.926109 265.07078 44.991002 265.11129 43.121006 265.22253 C 41.248218 265.33393 39.440524 265.51789 38.302696 265.5021 C 37.003835 265.48408 35.009243 265.33697 32.914394 265.15587 C 35.384111 264.83813 37.504465 264.69076 39.497972 264.84581 C 42.459356 265.07615 46.14046 264.78535 46.14046 264.78535 C 46.141064 264.78528 46.143994 264.78541 46.144594 264.78535 A 0.066769669 0.066769669 0 0 0 46.130642 264.65254 L 46.129091 264.65254 C 44.600933 264.82613 42.085902 264.34163 35.997927 264.16007 C 35.616824 264.1487 35.253761 264.14486 34.906004 264.14715 z M 34.907037 264.27996 C 35.253221 264.27766 35.614788 264.28156 35.994309 264.29288 C 40.701215 264.43325 42.204639 264.61663 43.849644 264.67373 C 42.531479 264.74183 41.437951 264.86521 39.50779 264.71507 C 37.341481 264.54657 35.038496 264.72914 32.305129 265.10161 C 31.283535 265.01084 30.286622 264.91893 29.306346 264.82463 C 31.041225 264.57507 32.652906 264.29492 34.907037 264.27996 z M 14.715505 264.72541 C 16.606329 264.72888 18.472028 264.80055 20.183388 264.97449 C 21.142853 265.072 22.003217 265.13229 22.797699 265.16827 C 21.937378 265.30423 21.064886 265.4558 20.22473 265.61321 C 19.976563 265.6597 19.759092 265.70501 19.518313 265.7517 C 18.743093 265.6665 17.965017 265.56705 17.17582 265.44526 C 15.16709 265.13526 10.316391 265.20853 5.9568668 265.35741 C 3.0660683 265.45611 1.9781805 265.52738 0.50603675 265.60546 C 3.1445201 265.31745 9.0430339 264.715 14.715505 264.72541 z M 27.504905 264.82049 C 27.713955 264.821 27.897343 264.83249 28.074896 264.84581 C 26.994573 264.9759 25.825259 265.07541 24.378998 265.07422 C 25.562019 264.91977 26.656401 264.81843 27.504905 264.82049 z M 28.737388 264.90214 C 29.701179 264.99545 30.706372 265.08926 31.736688 265.18274 C 31.004718 265.28692 30.241713 265.40266 29.441738 265.52898 C 28.830557 265.49828 28.230638 265.47418 27.650633 265.46076 C 25.580721 265.41285 23.125368 265.62598 20.949233 265.88503 C 20.619645 265.85977 20.289841 265.83437 19.959629 265.80131 C 20.0785 265.77864 20.116338 265.76861 20.247984 265.74395 C 21.315287 265.54399 22.438819 265.35046 23.518069 265.19205 C 25.679434 265.2483 27.282384 265.09864 28.737388 264.90214 z M 32.31133 265.2339 C 34.61927 265.43877 36.871382 265.61303 38.300629 265.63285 C 39.454428 265.64885 41.259493 265.46654 43.128758 265.35534 C 43.563966 265.32944 43.905365 265.40518 44.340053 265.39048 C 43.718532 265.43858 43.082312 265.50107 42.403221 265.5915 C 41.940427 265.5826 41.495302 265.591 41.088055 265.62509 C 40.259352 265.69447 39.297622 265.85486 38.285126 265.99148 C 37.272263 265.99036 36.151745 265.94278 34.978351 265.87469 C 33.385678 265.78228 31.707221 265.65769 30.082526 265.56618 C 30.84652 265.44784 31.610448 265.32957 32.31133 265.2339 z M 26.746295 265.59099 C 27.058721 265.5866 27.359762 265.58694 27.646499 265.59357 C 27.990322 265.60153 28.352614 265.61924 28.708966 265.63388 C 28.685231 265.63738 28.661874 265.63974 28.638169 265.64318 C 28.06412 265.67318 27.503997 265.74418 26.744228 265.80648 C 26.019378 265.8659 25.312897 265.91924 24.499921 265.99458 C 23.563659 266.01424 22.639294 265.99349 21.717145 265.94084 C 23.440289 265.75699 25.22753 265.61232 26.746295 265.59099 z M 42.344309 265.72121 C 44.097083 265.73945 45.971145 266.03501 47.320233 266.27932 C 46.560163 266.18982 46.267125 266.1324 44.970506 266.03902 C 43.761781 265.95198 42.436685 265.89359 41.196576 265.91138 C 41.594261 265.83922 41.975045 265.77661 42.344309 265.72121 z M 30.546063 265.72638 C 32.02259 265.8148 33.532049 265.92443 34.972666 266.00802 C 35.802592 266.05617 36.590267 266.08686 37.349782 266.10568 C 36.861771 266.15776 36.367639 266.19791 35.874937 266.2111 C 33.934745 266.2631 32.017996 265.94791 31.031305 265.79304 C 30.856786 265.76565 30.702207 265.74626 30.546063 265.72638 z M 41.417234 265.74188 C 41.291854 265.76324 41.172663 265.78048 41.043097 265.80441 C 40.571912 265.89145 40.016187 265.94148 39.407538 265.96823 C 40.007448 265.88158 40.585627 265.80027 41.097874 265.75739 L 41.097874 265.7579 C 41.201949 265.74919 41.311094 265.7478 41.417234 265.74188 z M 30.419456 265.86487 C 30.597657 265.87159 30.792635 265.88945 31.011668 265.92378 C 31.99698 266.07843 33.922201 266.39582 35.879071 266.3434 C 36.69549 266.32155 37.511779 266.22985 38.295978 266.12429 C 38.388279 266.12433 38.478369 266.12352 38.568829 266.12274 C 38.456766 266.14244 38.337601 266.15873 38.232416 266.18165 C 36.525488 266.55356 34.600718 266.42501 32.80484 266.22661 C 31.366654 266.06775 30.172106 265.95644 29.074318 265.93153 C 29.5016 265.92163 29.884854 265.84472 30.419456 265.86487 z M 19.532265 265.88658 C 19.782173 265.91387 20.032752 265.9421 20.28209 265.96512 C 18.963886 266.13174 17.780251 266.30799 16.908136 266.44313 C 17.723857 266.26162 18.386497 266.11154 19.532265 265.88658 z M 38.214846 266.64312 C 37.532134 266.62994 36.877506 266.65431 36.273362 266.72684 L 36.273362 266.72632 C 34.962573 266.88368 33.443919 267.24558 31.843658 267.55728 C 31.270464 267.52909 30.597124 267.47837 29.896491 267.44359 C 28.821749 267.39019 27.715761 267.38239 26.896674 267.58001 C 26.891274 267.58058 26.884484 267.57943 26.879104 267.58001 L 26.880654 267.58208 C 26.877954 267.58273 26.874052 267.58143 26.871352 267.58208 A 0.06615245 0.06615245 0 0 0 26.820193 267.64668 A 0.06615245 0.06615245 0 0 0 26.89254 267.71127 C 27.414967 267.65526 27.925146 267.62898 28.458852 267.63634 C 28.931982 267.60568 29.373766 267.54863 29.890806 267.57433 C 30.384566 267.59883 30.862037 267.63232 31.308291 267.66011 C 31.150043 267.68917 30.98978 267.71449 30.830284 267.74176 C 29.990213 267.61352 29.323704 267.6266 28.658323 267.64099 C 29.205354 267.65741 29.782387 267.70936 30.431342 267.80791 C 29.594746 267.94056 28.746643 268.0436 27.90023 268.07611 C 24.782631 268.19583 21.705431 267.46592 20.12086 267.10924 C 17.010702 266.40915 15.876052 266.83417 13.238076 267.14438 C 10.949493 267.41346 8.7988872 267.61944 5.1739688 268.28695 C 5.1713888 268.28742 5.1703477 268.28647 5.1677677 268.28695 L 5.1719018 268.28901 A 0.06615245 0.06615245 0 0 0 5.1135074 268.35361 A 0.06615245 0.06615245 0 0 0 5.1853376 268.41614 L 5.1837873 268.4182 C 5.1849273 268.41811 5.1883318 268.41828 5.1894718 268.4182 A 0.06615245 0.06615245 0 0 0 5.1915388 268.4182 C 5.1953688 268.41791 5.2073289 268.41614 5.2111759 268.41614 C 7.2388005 268.26366 11.709931 267.83332 15.504088 267.38881 C 17.384509 267.1685 20.056559 267.78462 22.947044 268.2425 C 25.837528 268.70038 28.950276 268.9996 31.730487 268.13088 C 31.866067 268.08852 32.008441 268.05055 32.15165 268.01306 C 32.873609 268.03081 33.718949 267.98391 34.615065 267.91436 C 36.002602 267.80676 37.505203 267.64645 38.828245 267.59397 C 39.123973 267.58223 39.449483 267.5828 39.789427 267.59138 C 40.709861 267.64594 41.623104 267.72239 42.496238 267.81256 C 46.159074 268.19083 49.127658 268.78249 49.133042 268.78356 C 49.133047 268.78356 49.138727 268.78511 49.138727 268.78511 A 0.066558298 0.066558298 0 0 0 49.1718 268.65643 C 49.1718 268.65643 47.151851 268.02945 44.531256 267.47459 C 42.565809 267.05845 40.262982 266.68267 38.214846 266.64312 z M 28.658323 267.64099 C 28.591494 267.63898 28.524838 267.63725 28.458852 267.63634 C 28.393235 267.64059 28.329166 267.64586 28.261965 267.64874 C 28.395362 267.64717 28.526515 267.64384 28.658323 267.64099 z M 38.211228 266.77541 C 40.244362 266.81525 42.543133 267.18812 44.503867 267.60327 C 46.430898 268.01127 47.207408 268.26561 47.916062 268.47247 C 47.548744 268.40353 47.006111 268.29942 46.304274 268.18204 A 0.06615245 0.06615245 0 0 0 46.283087 268.16034 L 46.27947 268.16034 L 46.27947 268.15827 C 46.27947 268.15827 46.262 268.15621 46.2619 268.15621 C 46.24237 268.15121 44.8108 267.81027 43.117389 267.49423 C 41.412475 267.17604 39.470799 266.8841 38.474778 267.00382 C 36.529221 267.23767 33.993501 267.53748 32.679783 267.5764 C 32.612715 267.57838 32.525387 267.57466 32.45034 267.57433 C 33.838387 267.29215 35.147846 266.99456 36.288865 266.85758 C 36.885204 266.78599 37.533517 266.76213 38.211228 266.77541 z M 17.267287 266.86326 C 18.052898 266.87498 18.932281 266.97897 20.091921 267.23998 C 21.674593 267.59623 24.764946 268.32956 27.906431 268.20892 C 28.890168 268.17114 29.873712 268.03977 30.837002 267.8756 C 30.921182 267.8901 31.001454 267.90204 31.088149 267.91798 C 31.281883 267.95359 31.498303 267.97745 31.728937 267.99342 C 31.71674 267.99718 31.70335 267.99997 31.691213 268.00376 C 28.946172 268.86149 25.853518 268.56823 22.968748 268.11125 C 20.083978 267.65427 17.410778 267.03229 15.488068 267.25755 C 12.858842 267.56558 10.599109 267.76188 8.3556867 267.96862 C 10.004568 267.73419 11.861614 267.43936 13.254096 267.27564 C 14.908774 267.08108 15.957937 266.84372 17.267287 266.86326 z M 38.892841 267.10976 C 39.925664 267.09216 41.60503 267.34508 43.093618 267.6229 C 43.732869 267.7422 43.774931 267.7654 44.281142 267.87302 C 42.943567 267.68714 41.277785 267.48783 39.78891 267.45702 C 38.620279 267.38746 37.445258 267.36062 36.31212 267.38829 C 37.060621 267.30438 37.811098 267.21696 38.492348 267.13508 L 38.492348 267.13456 C 38.611055 267.12029 38.745294 267.11227 38.892841 267.10976 z M 36.766355 267.5087 C 37.108263 267.50511 37.456772 267.51156 37.804535 267.51748 C 36.753154 267.58981 35.644399 267.70033 34.603697 267.78103 C 33.935687 267.83284 33.29661 267.87146 32.71854 267.88077 C 33.90997 267.63386 35.302194 267.52407 36.766355 267.5087 z M 31.859678 267.68957 C 32.165886 267.70428 32.45247 267.71397 32.6834 267.70714 C 32.774769 267.70443 32.884555 267.69773 32.986741 267.69267 C 32.693693 267.74675 32.410454 267.80799 32.140281 267.87819 C 31.811451 267.8698 31.513198 267.84682 31.249379 267.80687 C 31.455256 267.7695 31.65648 267.72912 31.859678 267.68957 z M 47.151251 268.85797 C 46.510132 268.8607 45.766465 268.95849 44.81651 269.17371 C 43.308393 269.51539 42.406299 269.46064 41.884906 269.32409 C 41.624208 269.25579 41.458662 269.16709 41.359357 269.09775 C 41.260047 269.02835 41.230682 268.98458 41.230682 268.98458 A 0.06615245 0.06615245 0 0 0 41.119061 269.05486 C 41.119061 269.05486 41.121028 269.05848 41.121128 269.05848 C 41.121128 269.05848 41.12868 269.06574 41.12888 269.06674 C 41.13468 269.07574 41.190583 269.16868 41.331968 269.29722 C 41.409572 269.36778 41.511381 269.44742 41.640476 269.52718 C 38.983902 269.64706 36.261477 269.64862 36.261477 269.64862 A 0.066585539 0.066585539 0 0 0 36.252175 269.78143 L 36.261477 269.78143 C 36.276499 269.78331 40.193534 270.30256 43.724587 269.9995 C 44.125866 269.99426 44.583748 269.95038 45.105381 269.85326 C 46.91099 269.65683 48.263692 269.59316 49.45912 269.64294 C 49.807169 269.7984 50.225695 269.97657 50.945335 270.11526 C 50.954035 270.11726 50.952008 270.11946 50.960838 270.12146 A 0.066597329 0.066597329 0 0 0 51.000112 269.99434 C 50.994812 269.99234 50.991429 269.9922 50.986159 269.9902 C 50.757554 269.88714 50.549397 269.79279 50.344338 269.70081 C 50.944625 269.75478 51.530515 269.8358 52.148362 269.94163 L 52.146295 269.93749 A 0.06615245 0.06615245 0 0 0 52.226393 269.87496 A 0.06615245 0.06615245 0 0 0 52.173683 269.8145 L 52.177818 269.81243 C 52.175418 269.81171 52.172466 269.81137 52.170066 269.81037 C 52.167466 269.80992 52.164915 269.81081 52.162315 269.81037 C 51.256676 269.54382 50.301204 269.35394 49.268434 269.25071 C 48.916116 269.12073 48.574257 269.01786 48.216819 268.95099 C 47.883626 268.88866 47.535922 268.85633 47.151251 268.85797 z M 47.151768 268.98768 C 47.529236 268.98517 47.869009 269.01684 48.195115 269.07811 C 48.294163 269.09675 48.403447 269.14474 48.510858 269.19232 C 47.410276 269.12988 46.220717 269.16096 44.912111 269.2905 C 45.823057 269.08732 46.538022 268.99175 47.151768 268.98768 z M 47.051516 269.29619 C 46.695324 269.35616 46.271512 269.44652 45.751853 269.57627 C 45.511868 269.63619 45.284718 269.68506 45.068174 269.7251 C 44.846872 269.74842 44.629009 269.77063 44.392763 269.799 C 44.171156 269.82561 43.95005 269.84737 43.729755 269.86721 C 43.048542 269.877 42.54057 269.77252 42.166542 269.63363 C 43.010394 269.59177 43.857989 269.53486 44.626857 269.45122 C 45.484076 269.3578 46.288722 269.30758 47.051516 269.29619 z M 48.1145 269.30704 C 48.232399 269.31132 48.349036 269.31672 48.464866 269.32306 C 48.609963 269.33901 48.737431 269.36549 48.85554 269.40057 C 48.998602 269.44307 49.134744 269.49964 49.276703 269.56232 C 48.359087 269.51871 47.34943 269.5312 46.110488 269.62795 C 47.04859 269.40573 47.669775 269.31191 48.1145 269.30704 z M 41.814626 269.43571 C 41.831706 269.44071 41.833446 269.44652 41.851316 269.45122 C 41.929986 269.47182 42.019144 269.48997 42.113832 269.50599 C 42.052734 269.50911 41.993245 269.51179 41.931931 269.51478 C 41.894931 269.48872 41.859936 269.46256 41.814626 269.43571 z M 49.993972 269.54578 C 50.172265 269.58442 50.350674 269.62279 50.532957 269.65637 C 50.414005 269.64445 50.293664 269.63473 50.173806 269.62433 C 50.112695 269.59723 50.053526 269.57171 49.993972 269.54578 z M 41.861652 269.6481 C 41.925389 269.67915 41.992532 269.70961 42.06629 269.73854 C 42.26882 269.81797 42.511074 269.88657 42.795445 269.93387 C 40.420624 270.05824 38.28309 269.84994 37.287254 269.74009 C 37.9949 269.73738 39.887005 269.73682 41.861652 269.6481 z M 17.601634 279.63457 A 0.06615245 0.06615245 0 0 0 17.568561 279.7617 L 17.572178 279.76377 C 17.572178 279.76377 17.584034 279.76583 17.584064 279.76583 C 17.598334 279.76983 19.719455 280.41634 22.216856 281.02157 C 22.680153 281.13385 23.155771 281.24266 23.632273 281.34765 C 21.42036 281.72551 18.60069 281.56443 16.146426 281.26135 C 13.05771 280.87992 10.550902 280.28105 10.550902 280.28105 A 0.066526256 0.066526256 0 0 0 10.511627 280.40817 L 10.519379 280.41024 C 10.526079 280.41224 12.218714 281.04147 14.42405 281.59983 C 16.633732 282.15929 19.350552 282.64849 21.392617 282.35534 C 22.411221 282.20911 23.575139 281.88754 24.804295 281.59208 C 26.491941 281.92262 28.079718 282.13243 29.056748 282.00962 C 30.349712 281.8471 31.811861 281.66848 33.214634 281.51301 C 33.922241 281.67529 34.538272 281.84299 34.997988 281.96673 C 37.622092 282.67306 38.584723 282.24605 40.806419 281.93366 C 41.708731 281.80681 42.595978 281.69026 43.588161 281.53678 C 44.520748 281.54306 45.406031 281.48019 46.148212 281.29132 C 46.184441 281.28732 46.221451 281.29325 46.257766 281.28925 L 46.257766 281.28719 C 46.260466 281.28646 46.264884 281.28792 46.267584 281.28719 A 0.06615245 0.06615245 0 0 0 46.24433 281.158 C 46.070682 281.17715 45.89865 281.19093 45.726532 281.20502 C 45.787024 281.17945 45.838476 281.15651 45.890346 281.13267 C 46.157885 281.0809 46.4558 281.01787 46.745074 280.95801 C 47.006936 280.97755 47.363638 281.04337 47.892808 281.1797 C 48.924611 281.44552 49.577494 281.35806 49.974851 281.19727 C 50.173531 281.11687 50.307603 281.01689 50.392397 280.93734 C 50.471047 280.86354 50.500903 280.81152 50.506085 280.80298 C 50.506366 280.80252 50.513736 280.79678 50.513836 280.79678 C 50.513874 280.79672 50.515904 280.79264 50.515904 280.79264 A 0.066828636 0.066828636 0 0 0 50.402215 280.72236 C 50.402215 280.72236 50.390287 280.74367 50.338137 280.78127 C 50.285987 280.81887 50.197981 280.86761 50.0565 280.90581 C 49.773536 280.98231 49.277071 281.01494 48.443162 280.82003 C 48.14171 280.74956 47.878184 280.70119 47.64011 280.67224 A 0.06615245 0.06615245 0 0 0 47.587917 280.65415 L 47.589984 280.65002 C 47.588384 280.65016 47.583732 280.65208 47.582232 280.65208 C 47.564766 280.65365 47.533469 280.65718 47.51557 280.6588 C 47.142395 280.62282 46.834021 280.63776 46.545087 280.69342 C 46.413268 280.71881 46.284996 280.75346 46.15648 280.79523 C 45.213874 280.89491 44.070972 281.02697 42.843504 281.17608 C 41.990656 281.08862 41.077758 280.93229 40.036957 280.68361 C 38.764238 280.37952 36.882248 280.44681 34.822288 280.60144 C 34.051111 280.65932 33.249197 280.73089 32.452407 280.79936 C 30.106814 280.36409 27.598644 280.09703 25.337079 280.89858 C 21.666612 280.52234 17.601634 279.63457 17.601634 279.63457 z M 19.226341 280.07641 C 20.501423 280.33455 22.738452 280.76323 25.009967 281.00865 C 24.684356 281.11871 24.334819 281.21038 23.96507 281.28512 C 23.38795 281.16197 22.808434 281.0303 22.247862 280.89445 C 20.619885 280.49992 20.057972 280.3173 19.226341 280.07641 z M 28.882599 280.51772 C 29.902834 280.53718 30.93228 280.66909 31.94081 280.84225 C 31.502895 280.8791 31.072735 280.91108 30.641148 280.9425 C 29.928019 280.86771 29.187122 280.8291 28.439215 280.86344 C 27.932953 280.88669 27.427701 280.94953 26.925096 281.02777 C 26.516718 281.00485 26.092099 280.9703 25.661607 280.92959 C 26.696704 280.60602 27.783262 280.49677 28.882599 280.51772 z M 11.576162 280.59576 C 12.289101 280.75571 13.617331 281.0822 16.130923 281.39261 C 18.708452 281.7109 21.685948 281.87981 23.969204 281.42155 C 24.145303 281.45923 24.319099 281.4945 24.494236 281.53007 C 23.367096 281.80575 22.301352 282.09132 21.37298 282.2246 C 19.367911 282.51244 16.659495 282.0303 14.457123 281.4727 C 12.829711 281.06067 12.170885 280.80345 11.576162 280.59576 z M 37.726503 280.60351 C 38.60842 280.6058 39.388264 280.66419 40.008018 280.81228 C 40.899591 281.02531 41.672951 281.14498 42.413039 281.22879 C 42.177003 281.25787 41.949657 281.28497 41.710756 281.31509 C 40.144847 281.19176 38.641978 280.99796 37.670176 281.01537 C 36.885148 281.02946 35.808102 281.11329 34.6192 281.23034 C 34.071444 281.11807 33.506174 281.00429 32.928347 280.89135 C 33.567454 280.8362 34.21338 280.77862 34.832107 280.73218 C 35.860463 280.655 36.844587 280.60121 37.726503 280.60351 z M 51.59284 280.71409 A 0.06615245 0.06615245 0 0 0 51.562351 280.72495 C 51.562351 280.72495 51.5547 280.73063 51.5546 280.73063 C 51.5473 280.73563 51.159849 280.98949 50.656463 281.23861 C 50.566157 281.2833 50.47152 281.3266 50.37586 281.36884 C 50.173201 281.34197 49.956288 281.3863 49.726804 281.50216 C 49.557428 281.5877 49.339982 281.64708 49.124257 281.6882 C 49.119352 281.68783 49.114122 281.68812 49.109271 281.68768 C 48.674041 281.64848 48.165766 281.48367 47.693337 281.3771 C 47.220907 281.27053 46.775439 281.21786 46.460854 281.44377 C 46.152776 281.66504 45.900906 281.77955 45.666587 281.81532 C 45.930247 281.8243 46.201875 281.79165 46.537335 281.55074 C 46.793783 281.36657 47.202654 281.40125 47.665948 281.50578 C 47.988363 281.57851 48.332913 281.68144 48.667438 281.75176 C 48.415389 281.77457 48.232322 281.77346 48.232322 281.77346 A 0.06615245 0.06615245 0 0 0 48.197182 281.89645 C 48.197182 281.89645 49.035457 282.42166 49.747992 282.02513 C 49.885718 281.9485 50.00765 281.89144 50.117478 281.85098 C 49.956803 281.95429 49.796998 282.04772 49.648256 282.11918 C 49.3794 282.24834 49.147698 282.30107 49.017804 282.25199 C 48.35968 282.00335 47.508901 281.68368 47.037046 281.65822 C 46.783566 281.64452 46.43912 281.78648 46.082066 281.86906 C 45.879028 281.916 45.705234 281.87291 45.532745 281.82721 C 45.388626 281.83114 45.248533 281.8061 45.103314 281.75796 A 0.06615245 0.06615245 0 0 0 45.017531 281.82255 A 0.06615245 0.06615245 0 0 0 45.040786 281.8732 C 45.050086 281.8812 45.064905 281.87033 45.074375 281.87733 L 45.06249 281.8856 C 45.07089 281.8886 45.081498 281.8764 45.089878 281.8794 C 45.384076 282.09175 45.758606 282.08039 46.111521 281.99877 C 46.481314 281.91327 46.837655 281.78121 47.029295 281.79155 C 47.447682 281.81415 48.31337 282.12712 48.970778 282.37549 C 49.169769 282.45069 49.425885 282.37327 49.707167 282.23855 C 49.951138 282.12134 50.21379 281.95387 50.466294 281.77553 C 50.48368 281.775 50.500642 281.7749 50.517454 281.77553 C 50.717881 281.78353 50.888206 281.86864 51.087962 282.02719 A 0.06615245 0.06615245 0 0 0 51.195449 281.97655 A 0.06615245 0.06615245 0 0 0 51.183563 281.93728 C 51.178763 281.93028 51.17293 281.93054 51.16806 281.92384 C 51.16656 281.92284 51.165426 281.92071 51.163926 281.91971 C 51.046254 281.76269 50.922592 281.63293 50.790305 281.53833 C 51.258189 281.18043 51.617983 280.85027 51.629014 280.84019 C 51.62908 280.84013 51.634598 280.83657 51.634698 280.83657 C 51.63476 280.83651 51.64245 280.8283 51.64245 280.8283 A 0.06615245 0.06615245 0 0 0 51.62488 280.71875 A 0.06615245 0.06615245 0 0 0 51.59284 280.71409 z M 45.532745 281.82721 C 45.576782 281.826 45.621497 281.8222 45.666587 281.81532 C 45.588127 281.81265 45.509985 281.80654 45.431459 281.80085 C 45.465244 281.80931 45.49907 281.81828 45.532745 281.82721 z M 47.55071 280.79368 C 47.801803 280.82158 48.084426 280.87214 48.414223 280.94922 C 49.216226 281.13671 49.684171 281.10268 50.000173 281.02932 C 49.968933 281.04482 49.961769 281.05968 49.925759 281.07428 C 49.559534 281.22249 48.937866 281.31171 47.925881 281.05103 C 47.585089 280.96323 47.32355 280.91047 47.113527 280.88256 C 47.266711 280.84999 47.390934 280.82872 47.55071 280.79368 z M 32.445689 280.93165 C 32.49676 280.94114 32.548761 280.9494 32.599685 280.95904 C 33.134337 281.06032 33.65539 281.1698 34.168064 281.27633 C 33.8571 281.30836 33.540958 281.34372 33.220319 281.37917 C 32.643093 281.24724 32.006842 281.1196 31.324827 281.0226 C 31.700391 280.99262 32.068381 280.96404 32.445689 280.93165 z M 28.936342 280.98126 C 29.192928 280.97945 29.446229 280.99097 29.699603 281.00297 C 29.316019 281.02513 28.931702 281.04778 28.564272 281.05878 C 28.28924 281.06701 27.995988 281.06529 27.693524 281.05826 C 27.944058 281.03149 28.194962 281.00568 28.445416 280.99418 C 28.609376 280.98665 28.772915 280.98242 28.936342 280.98126 z M 25.335012 281.04017 C 25.665143 281.07311 25.994633 281.10584 26.321515 281.12906 C 25.807285 281.22559 25.299243 281.33744 24.803261 281.45617 C 24.63294 281.42291 24.463055 281.38991 24.291148 281.35437 C 24.632366 281.2744 24.956369 281.17923 25.258014 281.06653 C 25.283503 281.057 25.309452 281.04942 25.335012 281.04017 z M 30.636497 281.07428 C 31.412206 281.15623 32.149121 281.28324 32.816209 281.42568 C 31.530117 281.57121 30.215749 281.73099 29.039179 281.87888 C 28.152005 281.99039 26.697895 281.8146 25.121588 281.51921 C 25.705506 281.3829 26.300729 281.25988 26.902875 281.1642 C 27.478126 281.19339 28.039548 281.20535 28.568406 281.18952 C 29.231853 281.16966 29.929832 281.12555 30.636497 281.07428 z M 44.929681 281.10167 C 44.643872 281.15033 44.343545 281.20412 44.048081 281.25618 C 43.928495 281.25316 43.806071 281.2456 43.684796 281.23964 C 44.097147 281.19448 44.52187 281.14659 44.929681 281.10167 z M 37.671726 281.14663 C 38.497462 281.1318 39.746512 281.27469 41.087022 281.39416 C 40.346725 281.4895 39.60305 281.58737 38.890773 281.68716 C 37.865226 281.83083 36.537913 281.61087 35.076536 281.31923 C 36.084309 281.22514 36.992384 281.15882 37.671726 281.14663 z M 50.945335 281.22673 C 50.819651 281.33127 50.767327 281.38231 50.666799 281.46237 C 50.638401 281.44747 50.60972 281.43369 50.580499 281.42206 C 50.625617 281.40068 50.671141 281.3791 50.714858 281.35747 C 50.844236 281.29347 50.834707 281.28769 50.945335 281.22673 z M 34.609381 281.36418 C 36.251469 281.70261 37.744893 281.98171 38.91041 281.81842 C 39.921424 281.67678 40.862319 281.56043 41.772251 281.4541 C 41.776623 281.45444 41.780797 281.4548 41.78517 281.45513 C 42.066808 281.4768 42.348657 281.49019 42.63008 281.50423 C 41.970331 281.61903 41.334757 281.72595 40.787298 281.80292 C 38.554332 282.11691 37.634543 282.54041 35.031061 281.83961 C 34.650749 281.73724 34.158488 281.60402 33.599624 281.46857 C 33.943908 281.43135 34.279522 281.39681 34.609381 281.36418 z M 50.393947 281.50681 C 50.424463 281.51255 50.45466 281.51953 50.484381 281.52903 L 50.484381 281.52955 C 50.503224 281.53558 50.521608 281.54626 50.539675 281.559 C 50.526478 281.56876 50.518767 281.57513 50.504018 281.58588 C 50.47665 281.60581 50.448534 281.62505 50.420819 281.64479 C 50.210853 281.66023 49.975585 281.7458 49.683396 281.90834 C 49.22345 282.1643 48.781212 282.0068 48.52171 281.8887 C 48.62204 281.8837 48.641683 281.88827 48.795078 281.87113 C 48.901317 281.85928 49.015305 281.84312 49.130975 281.82204 C 49.506464 281.84508 49.966776 281.69493 50.393947 281.50681 z M 50.640444 281.64996 C 50.67085 281.68075 50.701188 281.71108 50.732428 281.73419 C 50.690812 281.72128 50.652347 281.69302 50.612022 281.67114 C 50.621665 281.66406 50.630863 281.65704 50.640444 281.64996 z M 33.361912 282.25664 C 32.993983 282.25756 32.656275 282.26884 32.355255 282.29126 C 27.572051 282.64757 21.339178 283.10233 18.107546 283.13669 C 16.495205 283.15379 13.944903 282.95651 11.300727 282.83593 C 8.658647 282.71544 5.9226262 282.67165 3.9197818 282.99819 C 3.9181918 282.99845 3.9156874 282.99793 3.9140974 282.99819 A 0.06686423 0.06686423 0 0 0 3.9296004 283.131 C 7.103514 282.92354 10.062036 283.00805 14.211143 283.59557 C 18.384457 284.18652 26.659259 283.34186 33.15624 283.2266 C 39.639575 283.1116 51.259263 284.61772 51.283299 284.62083 C 51.283317 284.62084 51.293117 284.6229 51.293117 284.6229 L 51.296734 284.6229 A 0.066154668 0.066154668 0 0 0 51.316371 284.49216 L 51.312754 284.49216 C 51.309948 284.49165 49.00417 284.07877 45.970445 283.60953 C 48.074609 283.56368 49.933728 283.29718 51.656402 282.83386 C 51.660602 282.83286 51.665668 282.83299 51.669838 282.8318 A 0.06615245 0.06615245 0 0 0 51.669838 282.83128 A 0.06615245 0.06615245 0 0 0 51.669838 282.83076 A 0.06615245 0.06615245 0 0 0 51.669838 282.83024 A 0.06615245 0.06615245 0 0 0 51.669838 282.82973 C 51.671638 282.82925 51.674239 282.8302 51.676039 282.82973 L 51.673972 282.82818 A 0.06615245 0.06615245 0 0 0 51.724615 282.76565 A 0.06615245 0.06615245 0 0 0 51.646584 282.70312 L 51.648651 282.70105 C 48.669721 283.16728 46.261606 283.2474 41.386745 282.71242 C 40.167597 282.57865 38.885094 282.52312 37.646405 282.51502 C 36.031192 282.35597 34.537745 282.25368 33.361912 282.25664 z M 33.360878 282.38996 C 34.18555 282.38816 35.179396 282.4414 36.255275 282.52639 C 35.51392 282.54112 34.801762 282.56843 34.152561 282.60339 C 32.068326 282.71562 30.600018 282.89354 30.593606 282.89432 L 30.585854 282.89432 A 0.06652104 0.06652104 0 0 0 30.593606 283.02713 C 30.593606 283.02713 37.656651 283.02653 41.664248 283.42556 C 42.88531 283.54714 44.027339 283.60956 45.105898 283.61676 C 46.548617 283.83878 47.542082 284.00838 48.57597 284.18572 C 45.330456 283.79671 38.324746 283.00415 33.154173 283.09586 C 26.647773 283.21129 18.3605 284.0499 14.228713 283.46483 C 12.442619 283.21192 10.943342 283.09181 9.4843 283.00801 C 10.132828 283.02391 10.645193 282.93914 11.295042 282.96874 C 13.936511 283.0892 16.482961 283.28676 18.107546 283.26949 C 21.349765 283.23499 27.581699 282.77987 32.365074 282.42355 L 32.365074 282.42407 C 32.661967 282.40195 32.995885 282.39076 33.360878 282.38996 z M 37.626768 282.64783 C 39.548721 282.83643 41.648374 283.10611 43.6171 283.38887 C 43.780864 283.41239 43.829374 283.42214 43.980385 283.44416 C 43.247326 283.42337 42.48117 283.37503 41.675616 283.29482 C 38.05764 282.93458 32.894729 282.93917 31.708783 282.93566 C 32.283511 282.87536 32.726375 282.81137 34.16238 282.73413 C 35.201851 282.67822 36.39252 282.63961 37.626768 282.64783 z M 39.289199 282.69124 C 39.990778 282.72262 40.6912 282.77113 41.371242 282.84575 C 45.269817 283.27358 47.578891 283.22807 49.882867 282.98631 C 48.358941 283.26928 46.745328 283.44608 44.936399 283.45398 C 44.49781 283.38813 44.091894 283.32328 43.63467 283.25761 C 42.215529 283.05379 40.729988 282.85724 39.289199 282.69124 z " />
  </g>
</svg>
