<?xml version="1.0" encoding="UTF-8" standalone="no"?>
<!-- Created with Inkscape (http://www.inkscape.org/) -->

<svg
   width="298.93356"
   height="101.43922"
   viewBox="0 0 79.092837 26.839125"
   version="1.1"
   id="svg1"
   inkscape:version="1.3.2 (091e20ef0f, 2023-11-25)"
   sodipodi:docname="x2.svg"
   xmlns:inkscape="http://www.inkscape.org/namespaces/inkscape"
   xmlns:sodipodi="http://sodipodi.sourceforge.net/DTD/sodipodi-0.dtd"
   xmlns="http://www.w3.org/2000/svg"
   xmlns:svg="http://www.w3.org/2000/svg">
  <sodipodi:namedview
     id="namedview1"
     pagecolor="#505050"
     bordercolor="#eeeeee"
     borderopacity="1"
     inkscape:showpageshadow="0"
     inkscape:pageopacity="0"
     inkscape:pagecheckerboard="0"
     inkscape:deskcolor="#d1d1d1"
     inkscape:document-units="px"
     inkscape:zoom="0.97008941"
     inkscape:cx="24.224571"
     inkscape:cy="-91.744121"
     inkscape:window-width="1920"
     inkscape:window-height="1048"
     inkscape:window-x="0"
     inkscape:window-y="0"
     inkscape:window-maximized="1"
     inkscape:current-layer="layer1"
     showgrid="false" />
  <defs
     id="defs1" />
  <g
     inkscape:label="Calque 1"
     inkscape:groupmode="layer"
     id="layer1"
     transform="translate(3.1842369,-307.74447)">
    <path
       id="path5"
       style="opacity:1;fill:#2b0011;stroke:none;stroke-width:0.1;stroke-linecap:round;stroke-linejoin:round;paint-order:fill markers stroke"
       d="M 10.235099,307.7447 A 13.419362,13.419362 0 0 0 -3.1842369,321.16403 13.419362,13.419362 0 0 0 10.235099,334.58337 13.419362,13.419362 0 0 0 23.654951,321.16403 13.419362,13.419362 0 0 0 10.235099,307.7447 Z m -1.0986411,2.51199 A 11.318059,11.318059 0 0 1 20.45463,321.57434 11.318059,11.318059 0 0 1 9.1364579,332.89251 11.318059,11.318059 0 0 1 -2.1817141,321.57434 11.318059,11.318059 0 0 1 9.1364579,310.25669 Z" />
    <path
       id="path6"
       style="opacity:1;fill:#2b0011;stroke:none;stroke-width:0.1;stroke-linecap:round;stroke-linejoin:round;paint-order:fill markers stroke"
       d="m 33.216634,332.78539 a 13.419362,13.419362 0 0 0 4.911821,-18.33115 13.419362,13.419362 0 0 0 -18.331156,-4.91182 13.419362,13.419362 0 0 0 -4.912263,18.33142 13.419362,13.419362 0 0 0 18.331598,4.91155 z m -0.304544,-2.72477 a 11.318059,11.318059 0 0 1 -15.46065,-4.14228 11.318059,11.318059 0 0 1 4.14274,-15.46091 11.318059,11.318059 0 0 1 15.46091,4.14273 11.318059,11.318059 0 0 1 -4.143,15.46046 z" />
  </g>
</svg>
